{
  "accessors": [
    {
      "bufferView": 2,
      "componentType": 5126,
      "count": 379,
      "max": [
        0.20591360330581665,
        0.9056426882743835,
        3.9516284465789795
      ],
      "min": [
        -1.6411734819412231,
        -1.6588010787963867,
        1.265344262123108
      ],
      "type": "VEC3"
    },
    {
      "bufferView": 2,
      "byteOffset": 4548,
      "componentType": 5126,
      "count": 379,
      "max": [
        1.0,
        0.999455988407135,
        0.999941349029541
      ],
      "min": [
        -0.9987752437591553,
        0.0,
        -1.0
      ],
      "type": "VEC3"
    },
    {
      "bufferView": 0,
      "componentType": 5125,
      "count": 540,
      "type": "SCALAR"
    },
    {
      "bufferView": 2,
      "byteOffset": 9096,
      "componentType": 5126,
      "count": 65532,
      "max": [
        1.8820075988769531,
        2.154149055480957,
        11.49279499053955
      ],
      "min": [
        -1.664513111114502,
        -2.2585768699645996,
        1.265260934829712
      ],
      "type": "VEC3"
    },
    {
      "bufferView": 2,
      "byteOffset": 795480,
      "componentType": 5126,
      "count": 65532,
      "max": [
        0.9999991059303284,
        0.9999995231628418,
        0.9928644895553589
      ],
      "min": [
        -0.999991774559021,
        -0.9999972581863403,
        -0.9999528527259827
      ],
      "type": "VEC3"
    },
    {
      "bufferView": 1,
      "componentType": 5126,
      "count": 65532,
      "max": [
        0.9991859793663025,
        0.9996640086174011
      ],
      "min": [
        0.0003000000142492354,
        0.0006340742111206055
      ],
      "type": "VEC2"
    },
    {
      "bufferView": 0,
      "byteOffset": 2160,
      "componentType": 5125,
      "count": 295461,
      "type": "SCALAR"
    },
    {
      "bufferView": 2,
      "byteOffset": 1581864,
      "componentType": 5126,
      "count": 65532,
      "max": [
        1.880216121673584,
        2.151139259338379,
        11.528000831604004
      ],
      "min": [
        -1.6627558469772339,
        -2.258904218673706,
        1.2665807008743286
      ],
      "type": "VEC3"
    },
    {
      "bufferView": 2,
      "byteOffset": 2368248,
      "componentType": 5126,
      "count": 65532,
      "max": [
        0.9999991059303284,
        0.9999937415122986,
        0.9989985823631287
      ],
      "min": [
        -0.9999974966049194,
        -0.9999793171882629,
        -0.9999918341636658
      ],
      "type": "VEC3"
    },
    {
      "bufferView": 1,
      "byteOffset": 524256,
      "componentType": 5126,
      "count": 65532,
      "max": [
        0.9997469782829285,
        0.999754011631012
      ],
      "min": [
        0.0003020000003743917,
        0.0002499818801879883
      ],
      "type": "VEC2"
    },
    {
      "bufferView": 0,
      "byteOffset": 1184004,
      "componentType": 5125,
      "count": 252696,
      "type": "SCALAR"
    },
    {
      "bufferView": 2,
      "byteOffset": 3154632,
      "componentType": 5126,
      "count": 31177,
      "max": [
        1.8813846111297607,
        2.154149055480957,
        11.53061294555664
      ],
      "min": [
        -1.664513111114502,
        -2.254401445388794,
        1.265958309173584
      ],
      "type": "VEC3"
    },
    {
      "bufferView": 2,
      "byteOffset": 3528756,
      "componentType": 5126,
      "count": 31177,
      "max": [
        0.9999614357948303,
        0.9999929070472717,
        0.999976396560669
      ],
      "min": [
        -0.9999696612358093,
        -0.9999778866767883,
        -0.9991743564605713
      ],
      "type": "VEC3"
    },
    {
      "bufferView": 1,
      "byteOffset": 1048512,
      "componentType": 5126,
      "count": 31177,
      "max": [
        0.9997490048408508,
        0.9997259974479675
      ],
      "min": [
        0.0004870000120718032,
        0.0002570152282714844
      ],
      "type": "VEC2"
    },
    {
      "bufferView": 0,
      "byteOffset": 2194788,
      "componentType": 5125,
      "count": 73320,
      "type": "SCALAR"
    }
  ],
  "asset": {
    "extras": {
      "author": "Universidad Provincial de Córdoba (https://sketchfab.com/tatomaffini)",
      "license": "CC-BY-4.0 (http://creativecommons.org/licenses/by/4.0/)",
      "source": "https://sketchfab.com/3d-models/virgen-tallada-en-madera-20d542837bae46bd96db53d5daee2e29",
      "title": "Virgen tallada en madera"
    },
    "generator": "Sketchfab-12.68.0",
    "version": "2.0"
  },
  "bufferViews": [
    {
      "buffer": 0,
      "byteLength": 2488068,
      "name": "floatBufferViews",
      "target": 34963
    },
    {
      "buffer": 0,
      "byteLength": 1297928,
      "byteOffset": 2488068,
      "byteStride": 8,
      "name": "floatBufferViews",
      "target": 34962
    },
    {
      "buffer": 0,
      "byteLength": 3902880,
      "byteOffset": 3785996,
      "byteStride": 12,
      "name": "floatBufferViews",
      "target": 34962
    }
  ],
  "buffers": [
    {
      "byteLength": 7688876,
      "uri": "scene.bin"
    }
  ],
  "extensionsRequired": [
    "KHR_materials_pbrSpecularGlossiness"
  ],
  "extensionsUsed": [
    "KHR_materials_pbrSpecularGlossiness"
  ],
  "images": [
    {
      "uri": "textures/virgen_madera_diffuse.jpeg"
    }
  ],
  "materials": [
    {
      "doubleSided": true,
      "extensions": {
        "KHR_materials_pbrSpecularGlossiness": {
          "diffuseFactor": [
            0.0,
            0.0,
            0.0,
            1.0
          ],
          "glossinessFactor": 0.0,
          "specularFactor": [
            0.0,
            0.0,
            0.0
          ]
        }
      },
      "name": "material"
    },
    {
      "doubleSided": true,
      "extensions": {
        "KHR_materials_pbrSpecularGlossiness": {
          "diffuseFactor": [
            1.0,
            1.0,
            1.0,
            1.0
          ],
          "diffuseTexture": {
            "index": 0
          },
          "glossinessFactor": 0.0,
          "specularFactor": [
            0.0,
            0.0,
            0.0
          ]
        }
      },
      "name": "virgen_madera"
    }
  ],
  "meshes": [
    {
      "name": "Object_0",
      "primitives": [
        {
          "attributes": {
            "NORMAL": 1,
            "POSITION": 0
          },
          "indices": 2,
          "material": 0,
          "mode": 4
        }
      ]
    },
    {
      "name": "Object_1",
      "primitives": [
        {
          "attributes": {
            "NORMAL": 4,
            "POSITION": 3,
            "TEXCOORD_0": 5
          },
          "indices": 6,
          "material": 1,
          "mode": 4
        }
      ]
    },
    {
      "name": "Object_2",
      "primitives": [
        {
          "attributes": {
            "NORMAL": 8,
            "POSITION": 7,
            "TEXCOORD_0": 9
          },
          "indices": 10,
          "material": 1,
          "mode": 4
        }
      ]
    },
    {
      "name": "Object_3",
      "primitives": [
        {
          "attributes": {
            "NORMAL": 12,
            "POSITION": 11,
            "TEXCOORD_0": 13
          },
          "indices": 14,
          "material": 1,
          "mode": 4
        }
      ]
    }
  ],
  "nodes": [
    {
      "children": [
        1
      ],
      "matrix": [
        0.14308470487594604,
        2.1975986589871084e-16,
        -0.9897104501724243,
        0.0,
        -0.9897104501724243,
        3.177118676499414e-17,
        -0.14308470487594604,
        0.0,
        0.0,
        1.0,
        2.220446049250313e-16,
        0.0,
        0.04135523736476898,
        -3.386722273253411e-17,
        0.1525244116783142,
        1.0
      ],
      "name": "Sketchfab_model"
    },
    {
      "children": [
        2,
        3,
        4,
        5
      ],
      "name": "virgen madera.obj.cleaner.materialmerger.gles"
    },
    {
      "mesh": 0,
      "name": "Object_2"
    },
    {
      "mesh": 1,
      "name": "Object_3"
    },
    {
      "mesh": 2,
      "name": "Object_4"
    },
    {
      "mesh": 3,
      "name": "Object_5"
    }
  ],
  "samplers": [
    {
      "magFilter": 9729,
      "minFilter": 9987,
      "wrapS": 10497,
      "wrapT": 10497
    }
  ],
  "scene": 0,
  "scenes": [
    {
      "name": "Sketchfab_Scene",
      "nodes": [
        0
      ]
    }
  ],
  "textures": [
    {
      "sampler": 0,
      "source": 0
    }
  ]
}
