{
	"asset":{
		"generator":"Khronos glTF Blender I/O v4.3.47",
		"version":"2.0"
	},
	"scene":0,
	"scenes":[
		{
			"name":"Scene",
			"nodes":[
				0,
				1,
				2,
				3
			]
		}
	],
	"nodes":[
		{
			"mesh":0,
			"name":"Cube.001",
			"scale":[
				1.072651982307434,
				0.8458529710769653,
				1.072651982307434
			],
			"translation":[
				-0.0028516300953924656,
				9.073637008666992,
				-0.008316190913319588
			]
		},
		{
			"mesh":1,
			"name":"Circle",
			"scale":[
				4.660293102264404,
				4.660293102264404,
				4.660293102264404
			],
			"translation":[
				0.01580333709716797,
				10.239168167114258,
				-0.00831615924835205
			]
		},
		{
			"mesh":2,
			"name":"Cube.002",
			"scale":[
				1.072651982307434,
				0.8458529710769653,
				1.072651982307434
			],
			"translation":[
				-8.872669219970703,
				9.073637008666992,
				-0.008316190913319588
			]
		},
		{
			"mesh":3,
			"name":"Circle.001",
			"scale":[
				4.660293102264404,
				4.660293102264404,
				4.5735764503479
			],
			"translation":[
				0.01580333709716797,
				9.829858779907227,
				-0.00831615924835205
			]
		}
	],
	"materials":[
		{
			"doubleSided":true,
			"name":"Material",
			"pbrMetallicRoughness":{
				"baseColorFactor":[
					0.1277438998222351,
					0.05209941416978836,
					0.027295177802443504,
					1
				],
				"metallicFactor":0,
				"roughnessFactor":0.5
			}
		},
		{
			"doubleSided":true,
			"name":"Material.001",
			"pbrMetallicRoughness":{
				"baseColorFactor":[
					0.8031938076019287,
					0.5122528672218323,
					0.5648311376571655,
					1
				],
				"metallicFactor":0,
				"roughnessFactor":0.5
			}
		}
	],
	"meshes":[
		{
			"name":"Cube.001",
			"primitives":[
				{
					"attributes":{
						"POSITION":0,
						"NORMAL":1,
						"TEXCOORD_0":2
					},
					"indices":3,
					"material":0
				}
			]
		},
		{
			"name":"Circle",
			"primitives":[
				{
					"attributes":{
						"POSITION":4,
						"NORMAL":5,
						"TEXCOORD_0":6
					},
					"indices":7,
					"material":0
				}
			]
		},
		{
			"name":"Cube.002",
			"primitives":[
				{
					"attributes":{
						"POSITION":8,
						"NORMAL":9,
						"TEXCOORD_0":10
					},
					"indices":3,
					"material":0
				}
			]
		},
		{
			"name":"Circle.001",
			"primitives":[
				{
					"attributes":{
						"POSITION":11,
						"NORMAL":12,
						"TEXCOORD_0":13
					},
					"indices":14,
					"material":0
				},
				{
					"attributes":{
						"POSITION":15,
						"NORMAL":16,
						"TEXCOORD_0":17
					},
					"indices":18,
					"material":1
				}
			]
		}
	],
	"accessors":[
		{
			"bufferView":0,
			"componentType":5126,
			"count":839,
			"max":[
				1.219822883605957,
				1.4194753170013428,
				1.219822883605957
			],
			"min":[
				-1.219822883605957,
				-11.211328506469727,
				-1.219822883605957
			],
			"type":"VEC3"
		},
		{
			"bufferView":1,
			"componentType":5126,
			"count":839,
			"type":"VEC3"
		},
		{
			"bufferView":2,
			"componentType":5126,
			"count":839,
			"type":"VEC2"
		},
		{
			"bufferView":3,
			"componentType":5123,
			"count":4620,
			"type":"SCALAR"
		},
		{
			"bufferView":4,
			"componentType":5126,
			"count":1780,
			"max":[
				1.9533717632293701,
				0.9977788925170898,
				0.2284604012966156
			],
			"min":[
				-3.858853578567505,
				0,
				-0.22846032679080963
			],
			"type":"VEC3"
		},
		{
			"bufferView":5,
			"componentType":5126,
			"count":1780,
			"type":"VEC3"
		},
		{
			"bufferView":6,
			"componentType":5126,
			"count":1780,
			"type":"VEC2"
		},
		{
			"bufferView":7,
			"componentType":5123,
			"count":2700,
			"type":"SCALAR"
		},
		{
			"bufferView":8,
			"componentType":5126,
			"count":839,
			"max":[
				1.219822883605957,
				1.4194753170013428,
				1.219822883605957
			],
			"min":[
				-1.219822883605957,
				-11.211328506469727,
				-1.219822883605957
			],
			"type":"VEC3"
		},
		{
			"bufferView":9,
			"componentType":5126,
			"count":839,
			"type":"VEC3"
		},
		{
			"bufferView":10,
			"componentType":5126,
			"count":839,
			"type":"VEC2"
		},
		{
			"bufferView":11,
			"componentType":5126,
			"count":3166,
			"max":[
				2.1936144828796387,
				1.9123530387878418,
				0.28297188878059387
			],
			"min":[
				-4.099096298217773,
				-2.1993167400360107,
				-0.29868602752685547
			],
			"type":"VEC3"
		},
		{
			"bufferView":12,
			"componentType":5126,
			"count":3166,
			"type":"VEC3"
		},
		{
			"bufferView":13,
			"componentType":5126,
			"count":3166,
			"type":"VEC2"
		},
		{
			"bufferView":14,
			"componentType":5123,
			"count":5412,
			"type":"SCALAR"
		},
		{
			"bufferView":15,
			"componentType":5126,
			"count":456,
			"max":[
				2.156230926513672,
				1.743640661239624,
				0.21274621784687042
			],
			"min":[
				-4.061712741851807,
				-2.1993167400360107,
				-0.22846032679080963
			],
			"type":"VEC3"
		},
		{
			"bufferView":16,
			"componentType":5126,
			"count":456,
			"type":"VEC3"
		},
		{
			"bufferView":17,
			"componentType":5126,
			"count":456,
			"type":"VEC2"
		},
		{
			"bufferView":18,
			"componentType":5123,
			"count":864,
			"type":"SCALAR"
		}
	],
	"bufferViews":[
		{
			"buffer":0,
			"byteLength":10068,
			"byteOffset":0,
			"target":34962
		},
		{
			"buffer":0,
			"byteLength":10068,
			"byteOffset":10068,
			"target":34962
		},
		{
			"buffer":0,
			"byteLength":6712,
			"byteOffset":20136,
			"target":34962
		},
		{
			"buffer":0,
			"byteLength":9240,
			"byteOffset":26848,
			"target":34963
		},
		{
			"buffer":0,
			"byteLength":21360,
			"byteOffset":36088,
			"target":34962
		},
		{
			"buffer":0,
			"byteLength":21360,
			"byteOffset":57448,
			"target":34962
		},
		{
			"buffer":0,
			"byteLength":14240,
			"byteOffset":78808,
			"target":34962
		},
		{
			"buffer":0,
			"byteLength":5400,
			"byteOffset":93048,
			"target":34963
		},
		{
			"buffer":0,
			"byteLength":10068,
			"byteOffset":98448,
			"target":34962
		},
		{
			"buffer":0,
			"byteLength":10068,
			"byteOffset":108516,
			"target":34962
		},
		{
			"buffer":0,
			"byteLength":6712,
			"byteOffset":118584,
			"target":34962
		},
		{
			"buffer":0,
			"byteLength":37992,
			"byteOffset":125296,
			"target":34962
		},
		{
			"buffer":0,
			"byteLength":37992,
			"byteOffset":163288,
			"target":34962
		},
		{
			"buffer":0,
			"byteLength":25328,
			"byteOffset":201280,
			"target":34962
		},
		{
			"buffer":0,
			"byteLength":10824,
			"byteOffset":226608,
			"target":34963
		},
		{
			"buffer":0,
			"byteLength":5472,
			"byteOffset":237432,
			"target":34962
		},
		{
			"buffer":0,
			"byteLength":5472,
			"byteOffset":242904,
			"target":34962
		},
		{
			"buffer":0,
			"byteLength":3648,
			"byteOffset":248376,
			"target":34962
		},
		{
			"buffer":0,
			"byteLength":1728,
			"byteOffset":252024,
			"target":34963
		}
	],
	"buffers":[
		{
			"byteLength":253752,
			"uri":"arcos.bin"
		}
	]
}
