{
	"asset":{
		"generator":"Khronos glTF Blender I/O v4.3.47",
		"version":"2.0"
	},
	"scene":0,
	"scenes":[
		{
			"name":"Scene",
			"nodes":[
				0
			]
		}
	],
	"nodes":[
		{
			"mesh":0,
			"name":"Torus.001",
			"rotation":[
				-0.23386463522911072,
				-0.9722691774368286,
				0,
				2.6697838961808884e-07
			],
			"scale":[
				0.5404669642448425,
				0.5404669642448425,
				0.5404670238494873
			],
			"translation":[
				-1.8496999740600586,
				0.9950127601623535,
				0.02994978427886963
			]
		}
	],
	"materials":[
		{
			"doubleSided":true,
			"name":"Material.004",
			"pbrMetallicRoughness":{
				"baseColorFactor":[
					0.42489680647850037,
					0.17213796079158783,
					0.06418057531118393,
					1
				],
				"metallicFactor":0,
				"roughnessFactor":0.5
			}
		},
		{
			"doubleSided":true,
			"name":"Material.007",
			"pbrMetallicRoughness":{
				"baseColorFactor":[
					0.11499086022377014,
					0.030301935970783234,
					0.013810738921165466,
					1
				],
				"metallicFactor":0,
				"roughnessFactor":0.5
			}
		}
	],
	"meshes":[
		{
			"name":"Torus.001",
			"primitives":[
				{
					"attributes":{
						"POSITION":0,
						"NORMAL":1,
						"TEXCOORD_0":2
					},
					"indices":3,
					"material":0
				},
				{
					"attributes":{
						"POSITION":4,
						"NORMAL":5,
						"TEXCOORD_0":6
					},
					"indices":7,
					"material":1
				}
			]
		}
	],
	"accessors":[
		{
			"bufferView":0,
			"componentType":5126,
			"count":2220,
			"max":[
				1.25,
				3.9749233722686768,
				3.7649292945861816
			],
			"min":[
				-6.5244364738464355,
				-1.30359947681427,
				-3.764932632446289
			],
			"type":"VEC3"
		},
		{
			"bufferView":1,
			"componentType":5126,
			"count":2220,
			"type":"VEC3"
		},
		{
			"bufferView":2,
			"componentType":5126,
			"count":2220,
			"type":"VEC2"
		},
		{
			"bufferView":3,
			"componentType":5123,
			"count":3378,
			"type":"SCALAR"
		},
		{
			"bufferView":4,
			"componentType":5126,
			"count":814,
			"max":[
				0.8476035594940186,
				3.8871026039123535,
				3.7649292945861816
			],
			"min":[
				-6.123170375823975,
				-1.30359947681427,
				-3.764932632446289
			],
			"type":"VEC3"
		},
		{
			"bufferView":5,
			"componentType":5126,
			"count":814,
			"type":"VEC3"
		},
		{
			"bufferView":6,
			"componentType":5126,
			"count":814,
			"type":"VEC2"
		},
		{
			"bufferView":7,
			"componentType":5123,
			"count":1278,
			"type":"SCALAR"
		}
	],
	"bufferViews":[
		{
			"buffer":0,
			"byteLength":26640,
			"byteOffset":0,
			"target":34962
		},
		{
			"buffer":0,
			"byteLength":26640,
			"byteOffset":26640,
			"target":34962
		},
		{
			"buffer":0,
			"byteLength":17760,
			"byteOffset":53280,
			"target":34962
		},
		{
			"buffer":0,
			"byteLength":6756,
			"byteOffset":71040,
			"target":34963
		},
		{
			"buffer":0,
			"byteLength":9768,
			"byteOffset":77796,
			"target":34962
		},
		{
			"buffer":0,
			"byteLength":9768,
			"byteOffset":87564,
			"target":34962
		},
		{
			"buffer":0,
			"byteLength":6512,
			"byteOffset":97332,
			"target":34962
		},
		{
			"buffer":0,
			"byteLength":2556,
			"byteOffset":103844,
			"target":34963
		}
	],
	"buffers":[
		{
			"byteLength":106400,
			"uri":"cazo.bin"
		}
	]
}
