{
	"asset":{
		"generator":"Khronos glTF Blender I/O v4.3.47",
		"version":"2.0"
	},
	"scene":0,
	"scenes":[
		{
			"name":"Scene",
			"nodes":[
				0,
				1,
				2,
				3,
				4,
				5
			]
		}
	],
	"nodes":[
		{
			"mesh":0,
			"name":"Esfera",
			"translation":[
				0,
				1.3063783645629883,
				0.2789456844329834
			]
		},
		{
			"mesh":1,
			"name":"C\u00edrculo",
			"rotation":[
				0.07741893827915192,
				0,
				0,
				0.9969987273216248
			],
			"scale":[
				0.3380953073501587,
				0.3380953073501587,
				0.3380953073501587
			],
			"translation":[
				-0.002170741558074951,
				0.4388146996498108,
				-0.17007014155387878
			]
		},
		{
			"mesh":2,
			"name":"C\u00edrculo.001",
			"rotation":[
				-0.027670497074723244,
				-0.9966145753860474,
				0.07738931477069855,
				0.0021486752666532993
			],
			"scale":[
				0.3380953073501587,
				0.3380953073501587,
				0.3380953073501587
			],
			"translation":[
				-0.002170741558074951,
				0.4388146996498108,
				0.7462635040283203
			]
		},
		{
			"mesh":3,
			"name":"Esfera.001",
			"scale":[
				1.2317993640899658,
				1.2317993640899658,
				1.2317993640899658
			],
			"translation":[
				-1.3441846370697021,
				1.4404454231262207,
				0.13056886196136475
			]
		},
		{
			"mesh":4,
			"name":"C\u00edrculo.002",
			"rotation":[
				0.07741893827915192,
				0,
				0,
				0.9969987273216248
			],
			"scale":[
				0.4164655804634094,
				0.4164655804634094,
				0.4164655804634094
			],
			"translation":[
				-1.3468586206436157,
				0.3717811405658722,
				-0.42252856492996216
			]
		},
		{
			"mesh":5,
			"name":"C\u00edrculo.003",
			"rotation":[
				-0.027670497074723244,
				-0.9966145753860474,
				0.07738931477069855,
				0.0021486752666532993
			],
			"scale":[
				0.4164655804634094,
				0.4164655804634094,
				0.41646555066108704
			],
			"translation":[
				-1.3468586206436157,
				0.3717811405658722,
				0.7062106728553772
			]
		}
	],
	"materials":[
		{
			"doubleSided":true,
			"name":"Material.001",
			"pbrMetallicRoughness":{
				"baseColorFactor":[
					0.5783899426460266,
					0.1315518170595169,
					0.018319962546229362,
					1
				],
				"metallicFactor":0,
				"roughnessFactor":0.5
			}
		},
		{
			"doubleSided":true,
			"name":"Material.002",
			"pbrMetallicRoughness":{
				"baseColorFactor":[
					0.17012383043766022,
					0.032017163932323456,
					0.012350350618362427,
					1
				],
				"metallicFactor":0,
				"roughnessFactor":0.5
			}
		}
	],
	"meshes":[
		{
			"name":"Esfera",
			"primitives":[
				{
					"attributes":{
						"POSITION":0,
						"NORMAL":1,
						"TEXCOORD_0":2
					},
					"indices":3,
					"material":0
				},
				{
					"attributes":{
						"POSITION":4,
						"NORMAL":5,
						"TEXCOORD_0":6
					},
					"indices":7,
					"material":1
				}
			]
		},
		{
			"name":"C\u00edrculo.001",
			"primitives":[
				{
					"attributes":{
						"POSITION":8,
						"NORMAL":9,
						"TEXCOORD_0":10
					},
					"indices":11,
					"material":1
				}
			]
		},
		{
			"name":"C\u00edrculo.002",
			"primitives":[
				{
					"attributes":{
						"POSITION":12,
						"NORMAL":13,
						"TEXCOORD_0":14
					},
					"indices":11,
					"material":1
				}
			]
		},
		{
			"name":"Esfera.001",
			"primitives":[
				{
					"attributes":{
						"POSITION":15,
						"NORMAL":16,
						"TEXCOORD_0":17
					},
					"indices":3,
					"material":0
				},
				{
					"attributes":{
						"POSITION":18,
						"NORMAL":19,
						"TEXCOORD_0":20
					},
					"indices":7,
					"material":1
				}
			]
		},
		{
			"name":"C\u00edrculo.003",
			"primitives":[
				{
					"attributes":{
						"POSITION":21,
						"NORMAL":22,
						"TEXCOORD_0":23
					},
					"indices":11,
					"material":1
				}
			]
		},
		{
			"name":"C\u00edrculo.004",
			"primitives":[
				{
					"attributes":{
						"POSITION":24,
						"NORMAL":25,
						"TEXCOORD_0":26
					},
					"indices":11,
					"material":1
				}
			]
		}
	],
	"accessors":[
		{
			"bufferView":0,
			"componentType":5126,
			"count":295,
			"max":[
				0.555570125579834,
				-0.8306190967559814,
				0.5555699467658997
			],
			"min":[
				-0.5555697679519653,
				-1,
				-0.5555695295333862
			],
			"type":"VEC3"
		},
		{
			"bufferView":1,
			"componentType":5126,
			"count":295,
			"type":"VEC3"
		},
		{
			"bufferView":2,
			"componentType":5126,
			"count":295,
			"type":"VEC2"
		},
		{
			"bufferView":3,
			"componentType":5123,
			"count":960,
			"type":"SCALAR"
		},
		{
			"bufferView":4,
			"componentType":5126,
			"count":198,
			"max":[
				0.555570125579834,
				-0.8081563711166382,
				0.5574703216552734
			],
			"min":[
				-0.5572175979614258,
				-0.9290190935134888,
				-0.5555695295333862
			],
			"type":"VEC3"
		},
		{
			"bufferView":5,
			"componentType":5126,
			"count":198,
			"type":"VEC3"
		},
		{
			"bufferView":6,
			"componentType":5126,
			"count":198,
			"type":"VEC2"
		},
		{
			"bufferView":7,
			"componentType":5123,
			"count":768,
			"type":"SCALAR"
		},
		{
			"bufferView":8,
			"componentType":5126,
			"count":234,
			"max":[
				0.5711467862129211,
				0.06666776537895203,
				-0.07401958107948303
			],
			"min":[
				-0.5711469650268555,
				0,
				-0.8956742882728577
			],
			"type":"VEC3"
		},
		{
			"bufferView":9,
			"componentType":5126,
			"count":234,
			"type":"VEC3"
		},
		{
			"bufferView":10,
			"componentType":5126,
			"count":234,
			"type":"VEC2"
		},
		{
			"bufferView":11,
			"componentType":5123,
			"count":1104,
			"type":"SCALAR"
		},
		{
			"bufferView":12,
			"componentType":5126,
			"count":234,
			"max":[
				0.5711467862129211,
				0.06666776537895203,
				-0.07401958107948303
			],
			"min":[
				-0.5711469650268555,
				0,
				-0.8956742882728577
			],
			"type":"VEC3"
		},
		{
			"bufferView":13,
			"componentType":5126,
			"count":234,
			"type":"VEC3"
		},
		{
			"bufferView":14,
			"componentType":5126,
			"count":234,
			"type":"VEC2"
		},
		{
			"bufferView":15,
			"componentType":5126,
			"count":295,
			"max":[
				0.555570125579834,
				-0.8306190967559814,
				0.5555699467658997
			],
			"min":[
				-0.5555697679519653,
				-1,
				-0.5555695295333862
			],
			"type":"VEC3"
		},
		{
			"bufferView":16,
			"componentType":5126,
			"count":295,
			"type":"VEC3"
		},
		{
			"bufferView":17,
			"componentType":5126,
			"count":295,
			"type":"VEC2"
		},
		{
			"bufferView":18,
			"componentType":5126,
			"count":198,
			"max":[
				0.555570125579834,
				-0.8081563711166382,
				0.5574703216552734
			],
			"min":[
				-0.5572175979614258,
				-0.9290190935134888,
				-0.5555695295333862
			],
			"type":"VEC3"
		},
		{
			"bufferView":19,
			"componentType":5126,
			"count":198,
			"type":"VEC3"
		},
		{
			"bufferView":20,
			"componentType":5126,
			"count":198,
			"type":"VEC2"
		},
		{
			"bufferView":21,
			"componentType":5126,
			"count":234,
			"max":[
				0.5711467862129211,
				0.06666776537895203,
				-0.07401958107948303
			],
			"min":[
				-0.5711469650268555,
				0,
				-0.8956742882728577
			],
			"type":"VEC3"
		},
		{
			"bufferView":22,
			"componentType":5126,
			"count":234,
			"type":"VEC3"
		},
		{
			"bufferView":23,
			"componentType":5126,
			"count":234,
			"type":"VEC2"
		},
		{
			"bufferView":24,
			"componentType":5126,
			"count":234,
			"max":[
				0.5711467862129211,
				0.06666776537895203,
				-0.07401958107948303
			],
			"min":[
				-0.5711469650268555,
				0,
				-0.8956742882728577
			],
			"type":"VEC3"
		},
		{
			"bufferView":25,
			"componentType":5126,
			"count":234,
			"type":"VEC3"
		},
		{
			"bufferView":26,
			"componentType":5126,
			"count":234,
			"type":"VEC2"
		}
	],
	"bufferViews":[
		{
			"buffer":0,
			"byteLength":3540,
			"byteOffset":0,
			"target":34962
		},
		{
			"buffer":0,
			"byteLength":3540,
			"byteOffset":3540,
			"target":34962
		},
		{
			"buffer":0,
			"byteLength":2360,
			"byteOffset":7080,
			"target":34962
		},
		{
			"buffer":0,
			"byteLength":1920,
			"byteOffset":9440,
			"target":34963
		},
		{
			"buffer":0,
			"byteLength":2376,
			"byteOffset":11360,
			"target":34962
		},
		{
			"buffer":0,
			"byteLength":2376,
			"byteOffset":13736,
			"target":34962
		},
		{
			"buffer":0,
			"byteLength":1584,
			"byteOffset":16112,
			"target":34962
		},
		{
			"buffer":0,
			"byteLength":1536,
			"byteOffset":17696,
			"target":34963
		},
		{
			"buffer":0,
			"byteLength":2808,
			"byteOffset":19232,
			"target":34962
		},
		{
			"buffer":0,
			"byteLength":2808,
			"byteOffset":22040,
			"target":34962
		},
		{
			"buffer":0,
			"byteLength":1872,
			"byteOffset":24848,
			"target":34962
		},
		{
			"buffer":0,
			"byteLength":2208,
			"byteOffset":26720,
			"target":34963
		},
		{
			"buffer":0,
			"byteLength":2808,
			"byteOffset":28928,
			"target":34962
		},
		{
			"buffer":0,
			"byteLength":2808,
			"byteOffset":31736,
			"target":34962
		},
		{
			"buffer":0,
			"byteLength":1872,
			"byteOffset":34544,
			"target":34962
		},
		{
			"buffer":0,
			"byteLength":3540,
			"byteOffset":36416,
			"target":34962
		},
		{
			"buffer":0,
			"byteLength":3540,
			"byteOffset":39956,
			"target":34962
		},
		{
			"buffer":0,
			"byteLength":2360,
			"byteOffset":43496,
			"target":34962
		},
		{
			"buffer":0,
			"byteLength":2376,
			"byteOffset":45856,
			"target":34962
		},
		{
			"buffer":0,
			"byteLength":2376,
			"byteOffset":48232,
			"target":34962
		},
		{
			"buffer":0,
			"byteLength":1584,
			"byteOffset":50608,
			"target":34962
		},
		{
			"buffer":0,
			"byteLength":2808,
			"byteOffset":52192,
			"target":34962
		},
		{
			"buffer":0,
			"byteLength":2808,
			"byteOffset":55000,
			"target":34962
		},
		{
			"buffer":0,
			"byteLength":1872,
			"byteOffset":57808,
			"target":34962
		},
		{
			"buffer":0,
			"byteLength":2808,
			"byteOffset":59680,
			"target":34962
		},
		{
			"buffer":0,
			"byteLength":2808,
			"byteOffset":62488,
			"target":34962
		},
		{
			"buffer":0,
			"byteLength":1872,
			"byteOffset":65296,
			"target":34962
		}
	],
	"buffers":[
		{
			"byteLength":67168,
			"uri":"cazuela.bin"
		}
	]
}
