{
	"asset":{
		"generator":"Khronos glTF Blender I/O v4.3.47",
		"version":"2.0"
	},
	"scene":0,
	"scenes":[
		{
			"name":"Scene",
			"nodes":[
				0
			]
		}
	],
	"nodes":[
		{
			"mesh":0,
			"name":"Cube",
			"scale":[
				5.288664817810059,
				1,
				1.2276053428649902
			],
			"translation":[
				0.0062202708795666695,
				1.030671238899231,
				-0.33395400643348694
			]
		}
	],
	"materials":[
		{
			"doubleSided":true,
			"name":"Material",
			"pbrMetallicRoughness":{
				"metallicFactor":0,
				"roughnessFactor":0.5
			}
		},
		{
			"doubleSided":true,
			"name":"Material.001",
			"pbrMetallicRoughness":{
				"baseColorFactor":[
					0.012189948931336403,
					0.0035614576190710068,
					0.21993574500083923,
					1
				],
				"metallicFactor":0,
				"roughnessFactor":0.5
			}
		},
		{
			"doubleSided":true,
			"name":"Material.002",
			"pbrMetallicRoughness":{
				"baseColorFactor":[
					0.06593959033489227,
					0.06593959033489227,
					0.06593959033489227,
					1
				],
				"metallicFactor":0,
				"roughnessFactor":0.5
			}
		},
		{
			"doubleSided":true,
			"name":"Material.003",
			"pbrMetallicRoughness":{
				"baseColorFactor":[
					0.7852450609207153,
					0.07663004845380783,
					0.02040962129831314,
					1
				],
				"metallicFactor":0,
				"roughnessFactor":0.5
			}
		}
	],
	"meshes":[
		{
			"name":"Cube",
			"primitives":[
				{
					"attributes":{
						"POSITION":0,
						"NORMAL":1,
						"TEXCOORD_0":2
					},
					"indices":3,
					"material":0
				},
				{
					"attributes":{
						"POSITION":4,
						"NORMAL":5,
						"TEXCOORD_0":6
					},
					"indices":7,
					"material":1
				},
				{
					"attributes":{
						"POSITION":8,
						"NORMAL":9,
						"TEXCOORD_0":10
					},
					"indices":11,
					"material":2
				},
				{
					"attributes":{
						"POSITION":12,
						"NORMAL":13,
						"TEXCOORD_0":14
					},
					"indices":15,
					"material":3
				}
			]
		}
	],
	"accessors":[
		{
			"bufferView":0,
			"componentType":5126,
			"count":498,
			"max":[
				1,
				2.448610782623291,
				1
			],
			"min":[
				-1,
				-0.5,
				-1
			],
			"type":"VEC3"
		},
		{
			"bufferView":1,
			"componentType":5126,
			"count":498,
			"type":"VEC3"
		},
		{
			"bufferView":2,
			"componentType":5126,
			"count":498,
			"type":"VEC2"
		},
		{
			"bufferView":3,
			"componentType":5123,
			"count":1446,
			"type":"SCALAR"
		},
		{
			"bufferView":4,
			"componentType":5126,
			"count":370,
			"max":[
				1,
				2.448610782623291,
				1
			],
			"min":[
				-1,
				-0.9821929931640625,
				-1
			],
			"type":"VEC3"
		},
		{
			"bufferView":5,
			"componentType":5126,
			"count":370,
			"type":"VEC3"
		},
		{
			"bufferView":6,
			"componentType":5126,
			"count":370,
			"type":"VEC2"
		},
		{
			"bufferView":7,
			"componentType":5123,
			"count":762,
			"type":"SCALAR"
		},
		{
			"bufferView":8,
			"componentType":5126,
			"count":226,
			"max":[
				1,
				1.1551495790481567,
				1
			],
			"min":[
				-1,
				-0.9821929931640625,
				-1
			],
			"type":"VEC3"
		},
		{
			"bufferView":9,
			"componentType":5126,
			"count":226,
			"type":"VEC3"
		},
		{
			"bufferView":10,
			"componentType":5126,
			"count":226,
			"type":"VEC2"
		},
		{
			"bufferView":11,
			"componentType":5123,
			"count":690,
			"type":"SCALAR"
		},
		{
			"bufferView":12,
			"componentType":5126,
			"count":20,
			"max":[
				0.6000000238418579,
				1.1551495790481567,
				0.5
			],
			"min":[
				-0.7000000476837158,
				1.1551495790481567,
				0
			],
			"type":"VEC3"
		},
		{
			"bufferView":13,
			"componentType":5126,
			"count":20,
			"type":"VEC3"
		},
		{
			"bufferView":14,
			"componentType":5126,
			"count":20,
			"type":"VEC2"
		},
		{
			"bufferView":15,
			"componentType":5123,
			"count":30,
			"type":"SCALAR"
		}
	],
	"bufferViews":[
		{
			"buffer":0,
			"byteLength":5976,
			"byteOffset":0,
			"target":34962
		},
		{
			"buffer":0,
			"byteLength":5976,
			"byteOffset":5976,
			"target":34962
		},
		{
			"buffer":0,
			"byteLength":3984,
			"byteOffset":11952,
			"target":34962
		},
		{
			"buffer":0,
			"byteLength":2892,
			"byteOffset":15936,
			"target":34963
		},
		{
			"buffer":0,
			"byteLength":4440,
			"byteOffset":18828,
			"target":34962
		},
		{
			"buffer":0,
			"byteLength":4440,
			"byteOffset":23268,
			"target":34962
		},
		{
			"buffer":0,
			"byteLength":2960,
			"byteOffset":27708,
			"target":34962
		},
		{
			"buffer":0,
			"byteLength":1524,
			"byteOffset":30668,
			"target":34963
		},
		{
			"buffer":0,
			"byteLength":2712,
			"byteOffset":32192,
			"target":34962
		},
		{
			"buffer":0,
			"byteLength":2712,
			"byteOffset":34904,
			"target":34962
		},
		{
			"buffer":0,
			"byteLength":1808,
			"byteOffset":37616,
			"target":34962
		},
		{
			"buffer":0,
			"byteLength":1380,
			"byteOffset":39424,
			"target":34963
		},
		{
			"buffer":0,
			"byteLength":240,
			"byteOffset":40804,
			"target":34962
		},
		{
			"buffer":0,
			"byteLength":240,
			"byteOffset":41044,
			"target":34962
		},
		{
			"buffer":0,
			"byteLength":160,
			"byteOffset":41284,
			"target":34962
		},
		{
			"buffer":0,
			"byteLength":60,
			"byteOffset":41444,
			"target":34963
		}
	],
	"buffers":[
		{
			"byteLength":41504,
			"uri":"cocina4.bin"
		}
	]
}
