{
	"asset":{
		"generator":"Khronos glTF Blender I/O v4.3.47",
		"version":"2.0"
	},
	"scene":0,
	"scenes":[
		{
			"name":"Scene",
			"nodes":[
				0,
				1,
				2,
				3,
				4,
				5,
				6
			]
		}
	],
	"nodes":[
		{
			"mesh":0,
			"name":"Cube",
			"scale":[
				10.495668411254883,
				0.18683481216430664,
				4.119865417480469
			],
			"translation":[
				0,
				3.195901393890381,
				-2.06323504447937
			]
		},
		{
			"mesh":1,
			"name":"Cube.002",
			"scale":[
				1.4380154609680176,
				0.10510154068470001,
				1.4526710510253906
			],
			"translation":[
				-4.08210563659668,
				2.634474277496338,
				3.463451623916626
			]
		},
		{
			"mesh":2,
			"name":"Cube.003",
			"rotation":[
				0,
				-1,
				0,
				1.6292068494294654e-07
			],
			"scale":[
				1.4380154609680176,
				0.10510154068470001,
				1.4526710510253906
			],
			"translation":[
				-4.08210563659668,
				2.634474277496338,
				-6.857492446899414
			]
		},
		{
			"mesh":3,
			"name":"Cube.005",
			"rotation":[
				0,
				-0.7071065902709961,
				0,
				0.7071069478988647
			],
			"scale":[
				1.4380154609680176,
				0.10510154068470001,
				1.4526710510253906
			],
			"translation":[
				-11.33834457397461,
				2.634474277496338,
				-1.9552454948425293
			]
		},
		{
			"mesh":4,
			"name":"Cube.001",
			"scale":[
				1.4380154609680176,
				0.10510154068470001,
				1.4526710510253906
			],
			"translation":[
				2.828794002532959,
				2.634474277496338,
				3.463451623916626
			]
		},
		{
			"mesh":5,
			"name":"Cube.004",
			"rotation":[
				0,
				-1,
				0,
				1.6292068494294654e-07
			],
			"scale":[
				1.4380154609680176,
				0.10510154068470001,
				1.4526710510253906
			],
			"translation":[
				2.828794002532959,
				2.634474277496338,
				-6.857492446899414
			]
		},
		{
			"mesh":6,
			"name":"Cube.006",
			"rotation":[
				0,
				0.7071070671081543,
				0,
				0.7071064710617065
			],
			"scale":[
				1.4380154609680176,
				0.10510154068470001,
				1.4526710510253906
			],
			"translation":[
				11.134653091430664,
				2.634474277496338,
				-1.9552454948425293
			]
		}
	],
	"materials":[
		{
			"doubleSided":true,
			"name":"Material",
			"pbrMetallicRoughness":{
				"baseColorFactor":[
					0.23821784555912018,
					0.08374272286891937,
					0.028052063658833504,
					1
				],
				"metallicFactor":0,
				"roughnessFactor":0.5
			}
		},
		{
			"doubleSided":true,
			"name":"Material.001",
			"pbrMetallicRoughness":{
				"baseColorFactor":[
					0.13644272089004517,
					0.05440448224544525,
					0.009877166710793972,
					1
				],
				"metallicFactor":0,
				"roughnessFactor":0.5
			}
		},
		{
			"doubleSided":true,
			"name":"Material.002",
			"pbrMetallicRoughness":{
				"baseColorFactor":[
					0.08502665162086487,
					0.0008829378639347851,
					0,
					1
				],
				"metallicFactor":0,
				"roughnessFactor":0.5
			}
		}
	],
	"meshes":[
		{
			"name":"Cube",
			"primitives":[
				{
					"attributes":{
						"POSITION":0,
						"NORMAL":1,
						"TEXCOORD_0":2
					},
					"indices":3,
					"material":0
				}
			]
		},
		{
			"name":"Cube.002",
			"primitives":[
				{
					"attributes":{
						"POSITION":4,
						"NORMAL":5,
						"TEXCOORD_0":6
					},
					"indices":7,
					"material":1
				},
				{
					"attributes":{
						"POSITION":8,
						"NORMAL":9,
						"TEXCOORD_0":10
					},
					"indices":11,
					"material":2
				}
			]
		},
		{
			"name":"Cube.003",
			"primitives":[
				{
					"attributes":{
						"POSITION":12,
						"NORMAL":13,
						"TEXCOORD_0":14
					},
					"indices":7,
					"material":1
				},
				{
					"attributes":{
						"POSITION":15,
						"NORMAL":16,
						"TEXCOORD_0":17
					},
					"indices":11,
					"material":2
				}
			]
		},
		{
			"name":"Cube.005",
			"primitives":[
				{
					"attributes":{
						"POSITION":18,
						"NORMAL":19,
						"TEXCOORD_0":20
					},
					"indices":7,
					"material":1
				},
				{
					"attributes":{
						"POSITION":21,
						"NORMAL":22,
						"TEXCOORD_0":23
					},
					"indices":11,
					"material":2
				}
			]
		},
		{
			"name":"Cube.007",
			"primitives":[
				{
					"attributes":{
						"POSITION":24,
						"NORMAL":25,
						"TEXCOORD_0":26
					},
					"indices":7,
					"material":1
				},
				{
					"attributes":{
						"POSITION":27,
						"NORMAL":28,
						"TEXCOORD_0":29
					},
					"indices":11,
					"material":2
				}
			]
		},
		{
			"name":"Cube.008",
			"primitives":[
				{
					"attributes":{
						"POSITION":30,
						"NORMAL":31,
						"TEXCOORD_0":32
					},
					"indices":7,
					"material":1
				},
				{
					"attributes":{
						"POSITION":33,
						"NORMAL":34,
						"TEXCOORD_0":35
					},
					"indices":11,
					"material":2
				}
			]
		},
		{
			"name":"Cube.009",
			"primitives":[
				{
					"attributes":{
						"POSITION":36,
						"NORMAL":37,
						"TEXCOORD_0":38
					},
					"indices":7,
					"material":1
				},
				{
					"attributes":{
						"POSITION":39,
						"NORMAL":40,
						"TEXCOORD_0":41
					},
					"indices":11,
					"material":2
				}
			]
		}
	],
	"accessors":[
		{
			"bufferView":0,
			"componentType":5126,
			"count":542,
			"max":[
				1,
				1,
				1
			],
			"min":[
				-1,
				-27.963285446166992,
				-1
			],
			"type":"VEC3"
		},
		{
			"bufferView":1,
			"componentType":5126,
			"count":542,
			"type":"VEC3"
		},
		{
			"bufferView":2,
			"componentType":5126,
			"count":542,
			"type":"VEC2"
		},
		{
			"bufferView":3,
			"componentType":5123,
			"count":2592,
			"type":"SCALAR"
		},
		{
			"bufferView":4,
			"componentType":5126,
			"count":314,
			"max":[
				1,
				29.494701385498047,
				1
			],
			"min":[
				-1,
				-43.86636734008789,
				-1
			],
			"type":"VEC3"
		},
		{
			"bufferView":5,
			"componentType":5126,
			"count":314,
			"type":"VEC3"
		},
		{
			"bufferView":6,
			"componentType":5126,
			"count":314,
			"type":"VEC2"
		},
		{
			"bufferView":7,
			"componentType":5123,
			"count":984,
			"type":"SCALAR"
		},
		{
			"bufferView":8,
			"componentType":5126,
			"count":16,
			"max":[
				0.7142857313156128,
				26.216323852539062,
				1
			],
			"min":[
				-0.7142857313156128,
				1.3641185760498047,
				0.7142857313156128
			],
			"type":"VEC3"
		},
		{
			"bufferView":9,
			"componentType":5126,
			"count":16,
			"type":"VEC3"
		},
		{
			"bufferView":10,
			"componentType":5126,
			"count":16,
			"type":"VEC2"
		},
		{
			"bufferView":11,
			"componentType":5123,
			"count":24,
			"type":"SCALAR"
		},
		{
			"bufferView":12,
			"componentType":5126,
			"count":314,
			"max":[
				1,
				29.494701385498047,
				1
			],
			"min":[
				-1,
				-43.86636734008789,
				-1
			],
			"type":"VEC3"
		},
		{
			"bufferView":13,
			"componentType":5126,
			"count":314,
			"type":"VEC3"
		},
		{
			"bufferView":14,
			"componentType":5126,
			"count":314,
			"type":"VEC2"
		},
		{
			"bufferView":15,
			"componentType":5126,
			"count":16,
			"max":[
				0.7142857313156128,
				26.216323852539062,
				1
			],
			"min":[
				-0.7142857313156128,
				1.3641185760498047,
				0.7142857313156128
			],
			"type":"VEC3"
		},
		{
			"bufferView":16,
			"componentType":5126,
			"count":16,
			"type":"VEC3"
		},
		{
			"bufferView":17,
			"componentType":5126,
			"count":16,
			"type":"VEC2"
		},
		{
			"bufferView":18,
			"componentType":5126,
			"count":314,
			"max":[
				1,
				29.494701385498047,
				1
			],
			"min":[
				-1,
				-43.86636734008789,
				-1
			],
			"type":"VEC3"
		},
		{
			"bufferView":19,
			"componentType":5126,
			"count":314,
			"type":"VEC3"
		},
		{
			"bufferView":20,
			"componentType":5126,
			"count":314,
			"type":"VEC2"
		},
		{
			"bufferView":21,
			"componentType":5126,
			"count":16,
			"max":[
				0.7142857313156128,
				26.216323852539062,
				1
			],
			"min":[
				-0.7142857313156128,
				1.3641185760498047,
				0.7142857313156128
			],
			"type":"VEC3"
		},
		{
			"bufferView":22,
			"componentType":5126,
			"count":16,
			"type":"VEC3"
		},
		{
			"bufferView":23,
			"componentType":5126,
			"count":16,
			"type":"VEC2"
		},
		{
			"bufferView":24,
			"componentType":5126,
			"count":314,
			"max":[
				1,
				29.494701385498047,
				1
			],
			"min":[
				-1,
				-43.86636734008789,
				-1
			],
			"type":"VEC3"
		},
		{
			"bufferView":25,
			"componentType":5126,
			"count":314,
			"type":"VEC3"
		},
		{
			"bufferView":26,
			"componentType":5126,
			"count":314,
			"type":"VEC2"
		},
		{
			"bufferView":27,
			"componentType":5126,
			"count":16,
			"max":[
				0.7142857313156128,
				26.216323852539062,
				1
			],
			"min":[
				-0.7142857313156128,
				1.3641185760498047,
				0.7142857313156128
			],
			"type":"VEC3"
		},
		{
			"bufferView":28,
			"componentType":5126,
			"count":16,
			"type":"VEC3"
		},
		{
			"bufferView":29,
			"componentType":5126,
			"count":16,
			"type":"VEC2"
		},
		{
			"bufferView":30,
			"componentType":5126,
			"count":314,
			"max":[
				1,
				29.494701385498047,
				1
			],
			"min":[
				-1,
				-43.86636734008789,
				-1
			],
			"type":"VEC3"
		},
		{
			"bufferView":31,
			"componentType":5126,
			"count":314,
			"type":"VEC3"
		},
		{
			"bufferView":32,
			"componentType":5126,
			"count":314,
			"type":"VEC2"
		},
		{
			"bufferView":33,
			"componentType":5126,
			"count":16,
			"max":[
				0.7142857313156128,
				26.216323852539062,
				1
			],
			"min":[
				-0.7142857313156128,
				1.3641185760498047,
				0.7142857313156128
			],
			"type":"VEC3"
		},
		{
			"bufferView":34,
			"componentType":5126,
			"count":16,
			"type":"VEC3"
		},
		{
			"bufferView":35,
			"componentType":5126,
			"count":16,
			"type":"VEC2"
		},
		{
			"bufferView":36,
			"componentType":5126,
			"count":314,
			"max":[
				1,
				29.494701385498047,
				1
			],
			"min":[
				-1,
				-43.86636734008789,
				-1
			],
			"type":"VEC3"
		},
		{
			"bufferView":37,
			"componentType":5126,
			"count":314,
			"type":"VEC3"
		},
		{
			"bufferView":38,
			"componentType":5126,
			"count":314,
			"type":"VEC2"
		},
		{
			"bufferView":39,
			"componentType":5126,
			"count":16,
			"max":[
				0.7142857313156128,
				26.216323852539062,
				1
			],
			"min":[
				-0.7142857313156128,
				1.3641185760498047,
				0.7142857313156128
			],
			"type":"VEC3"
		},
		{
			"bufferView":40,
			"componentType":5126,
			"count":16,
			"type":"VEC3"
		},
		{
			"bufferView":41,
			"componentType":5126,
			"count":16,
			"type":"VEC2"
		}
	],
	"bufferViews":[
		{
			"buffer":0,
			"byteLength":6504,
			"byteOffset":0,
			"target":34962
		},
		{
			"buffer":0,
			"byteLength":6504,
			"byteOffset":6504,
			"target":34962
		},
		{
			"buffer":0,
			"byteLength":4336,
			"byteOffset":13008,
			"target":34962
		},
		{
			"buffer":0,
			"byteLength":5184,
			"byteOffset":17344,
			"target":34963
		},
		{
			"buffer":0,
			"byteLength":3768,
			"byteOffset":22528,
			"target":34962
		},
		{
			"buffer":0,
			"byteLength":3768,
			"byteOffset":26296,
			"target":34962
		},
		{
			"buffer":0,
			"byteLength":2512,
			"byteOffset":30064,
			"target":34962
		},
		{
			"buffer":0,
			"byteLength":1968,
			"byteOffset":32576,
			"target":34963
		},
		{
			"buffer":0,
			"byteLength":192,
			"byteOffset":34544,
			"target":34962
		},
		{
			"buffer":0,
			"byteLength":192,
			"byteOffset":34736,
			"target":34962
		},
		{
			"buffer":0,
			"byteLength":128,
			"byteOffset":34928,
			"target":34962
		},
		{
			"buffer":0,
			"byteLength":48,
			"byteOffset":35056,
			"target":34963
		},
		{
			"buffer":0,
			"byteLength":3768,
			"byteOffset":35104,
			"target":34962
		},
		{
			"buffer":0,
			"byteLength":3768,
			"byteOffset":38872,
			"target":34962
		},
		{
			"buffer":0,
			"byteLength":2512,
			"byteOffset":42640,
			"target":34962
		},
		{
			"buffer":0,
			"byteLength":192,
			"byteOffset":45152,
			"target":34962
		},
		{
			"buffer":0,
			"byteLength":192,
			"byteOffset":45344,
			"target":34962
		},
		{
			"buffer":0,
			"byteLength":128,
			"byteOffset":45536,
			"target":34962
		},
		{
			"buffer":0,
			"byteLength":3768,
			"byteOffset":45664,
			"target":34962
		},
		{
			"buffer":0,
			"byteLength":3768,
			"byteOffset":49432,
			"target":34962
		},
		{
			"buffer":0,
			"byteLength":2512,
			"byteOffset":53200,
			"target":34962
		},
		{
			"buffer":0,
			"byteLength":192,
			"byteOffset":55712,
			"target":34962
		},
		{
			"buffer":0,
			"byteLength":192,
			"byteOffset":55904,
			"target":34962
		},
		{
			"buffer":0,
			"byteLength":128,
			"byteOffset":56096,
			"target":34962
		},
		{
			"buffer":0,
			"byteLength":3768,
			"byteOffset":56224,
			"target":34962
		},
		{
			"buffer":0,
			"byteLength":3768,
			"byteOffset":59992,
			"target":34962
		},
		{
			"buffer":0,
			"byteLength":2512,
			"byteOffset":63760,
			"target":34962
		},
		{
			"buffer":0,
			"byteLength":192,
			"byteOffset":66272,
			"target":34962
		},
		{
			"buffer":0,
			"byteLength":192,
			"byteOffset":66464,
			"target":34962
		},
		{
			"buffer":0,
			"byteLength":128,
			"byteOffset":66656,
			"target":34962
		},
		{
			"buffer":0,
			"byteLength":3768,
			"byteOffset":66784,
			"target":34962
		},
		{
			"buffer":0,
			"byteLength":3768,
			"byteOffset":70552,
			"target":34962
		},
		{
			"buffer":0,
			"byteLength":2512,
			"byteOffset":74320,
			"target":34962
		},
		{
			"buffer":0,
			"byteLength":192,
			"byteOffset":76832,
			"target":34962
		},
		{
			"buffer":0,
			"byteLength":192,
			"byteOffset":77024,
			"target":34962
		},
		{
			"buffer":0,
			"byteLength":128,
			"byteOffset":77216,
			"target":34962
		},
		{
			"buffer":0,
			"byteLength":3768,
			"byteOffset":77344,
			"target":34962
		},
		{
			"buffer":0,
			"byteLength":3768,
			"byteOffset":81112,
			"target":34962
		},
		{
			"buffer":0,
			"byteLength":2512,
			"byteOffset":84880,
			"target":34962
		},
		{
			"buffer":0,
			"byteLength":192,
			"byteOffset":87392,
			"target":34962
		},
		{
			"buffer":0,
			"byteLength":192,
			"byteOffset":87584,
			"target":34962
		},
		{
			"buffer":0,
			"byteLength":128,
			"byteOffset":87776,
			"target":34962
		}
	],
	"buffers":[
		{
			"byteLength":87904,
			"uri":"comedor2.bin"
		}
	]
}
