{
	"asset":{
		"generator":"Khronos glTF Blender I/O v4.3.47",
		"version":"2.0"
	},
	"scene":0,
	"scenes":[
		{
			"name":"Scene",
			"nodes":[
				0
			]
		}
	],
	"nodes":[
		{
			"mesh":0,
			"name":"Cube",
			"scale":[
				0.1673644334077835,
				0.8227598071098328,
				0.04461240395903587
			],
			"translation":[
				-0.01796114444732666,
				0.5306450128555298,
				0.02994978427886963
			]
		}
	],
	"materials":[
		{
			"doubleSided":true,
			"name":"Material.007",
			"pbrMetallicRoughness":{
				"baseColorFactor":[
					0.11499086022377014,
					0.030301935970783234,
					0.013810738921165466,
					1
				],
				"metallicFactor":0,
				"roughnessFactor":0.5
			}
		},
		{
			"doubleSided":true,
			"name":"Material.001",
			"pbrMetallicRoughness":{
				"baseColorFactor":[
					0.1913490891456604,
					0.05062011629343033,
					0.018265768885612488,
					1
				],
				"metallicFactor":0,
				"roughnessFactor":0.5
			}
		}
	],
	"meshes":[
		{
			"name":"Cube.008",
			"primitives":[
				{
					"attributes":{
						"POSITION":0,
						"NORMAL":1,
						"TEXCOORD_0":2
					},
					"indices":3,
					"material":0
				},
				{
					"attributes":{
						"POSITION":4,
						"NORMAL":5,
						"TEXCOORD_0":6
					},
					"indices":7,
					"material":1
				}
			]
		}
	],
	"accessors":[
		{
			"bufferView":0,
			"componentType":5126,
			"count":1053,
			"max":[
				2.6252002716064453,
				1.2714375257492065,
				1
			],
			"min":[
				-2.6252002716064453,
				-0.6666666865348816,
				-1
			],
			"type":"VEC3"
		},
		{
			"bufferView":1,
			"componentType":5126,
			"count":1053,
			"type":"VEC3"
		},
		{
			"bufferView":2,
			"componentType":5126,
			"count":1053,
			"type":"VEC2"
		},
		{
			"bufferView":3,
			"componentType":5123,
			"count":2598,
			"type":"SCALAR"
		},
		{
			"bufferView":4,
			"componentType":5126,
			"count":81,
			"max":[
				2.6252002716064453,
				1.2714375257492065,
				1
			],
			"min":[
				-2.0834667682647705,
				-0.6666666865348816,
				-1
			],
			"type":"VEC3"
		},
		{
			"bufferView":5,
			"componentType":5126,
			"count":81,
			"type":"VEC3"
		},
		{
			"bufferView":6,
			"componentType":5126,
			"count":81,
			"type":"VEC2"
		},
		{
			"bufferView":7,
			"componentType":5123,
			"count":150,
			"type":"SCALAR"
		}
	],
	"bufferViews":[
		{
			"buffer":0,
			"byteLength":12636,
			"byteOffset":0,
			"target":34962
		},
		{
			"buffer":0,
			"byteLength":12636,
			"byteOffset":12636,
			"target":34962
		},
		{
			"buffer":0,
			"byteLength":8424,
			"byteOffset":25272,
			"target":34962
		},
		{
			"buffer":0,
			"byteLength":5196,
			"byteOffset":33696,
			"target":34963
		},
		{
			"buffer":0,
			"byteLength":972,
			"byteOffset":38892,
			"target":34962
		},
		{
			"buffer":0,
			"byteLength":972,
			"byteOffset":39864,
			"target":34962
		},
		{
			"buffer":0,
			"byteLength":648,
			"byteOffset":40836,
			"target":34962
		},
		{
			"buffer":0,
			"byteLength":300,
			"byteOffset":41484,
			"target":34963
		}
	],
	"buffers":[
		{
			"byteLength":41784,
			"uri":"cruces.bin"
		}
	]
}
