{
	"asset":{
		"generator":"Khronos glTF Blender I/O v4.3.47",
		"version":"2.0"
	},
	"scene":0,
	"scenes":[
		{
			"name":"Scene",
			"nodes":[
				0,
				1,
				2,
				3,
				4,
				5,
				6
			]
		}
	],
	"nodes":[
		{
			"mesh":0,
			"name":"Cube.001",
			"scale":[
				0.07226722687482834,
				0.4226324260234833,
				2.970980167388916
			],
			"translation":[
				0.5093477964401245,
				3.176326274871826,
				-0.09806138277053833
			]
		},
		{
			"mesh":1,
			"name":"Cube.002",
			"rotation":[
				0,
				0,
				0.7071068286895752,
				0.7071068286895752
			],
			"scale":[
				0.2537558078765869,
				0.06900354474782944,
				0.2537558078765869
			],
			"translation":[
				0.3897819519042969,
				1.8192821741104126,
				0.7015057802200317
			]
		},
		{
			"mesh":2,
			"name":"Cube.003",
			"rotation":[
				0,
				0,
				0.7071068286895752,
				0.7071068286895752
			],
			"scale":[
				0.2537558078765869,
				0.06900354474782944,
				0.2537558078765869
			],
			"translation":[
				0.3897819519042969,
				1.8192821741104126,
				1.3052215576171875
			]
		},
		{
			"mesh":3,
			"name":"Cube.004",
			"rotation":[
				0,
				0,
				0.7071068286895752,
				0.7071068286895752
			],
			"scale":[
				0.2537558078765869,
				0.06900354474782944,
				0.2537558078765869
			],
			"translation":[
				0.3897819519042969,
				1.8192821741104126,
				-2.5939383506774902
			]
		},
		{
			"mesh":4,
			"name":"Cube.005",
			"rotation":[
				0,
				0,
				0.7071068286895752,
				0.7071068286895752
			],
			"scale":[
				0.19597788155078888,
				0.05329205468297005,
				0.19597788155078888
			],
			"translation":[
				0.3897819519042969,
				2.171566963195801,
				-1.372715711593628
			]
		},
		{
			"mesh":5,
			"name":"Cube.006",
			"rotation":[
				0,
				0,
				0.7071068286895752,
				0.7071068286895752
			],
			"scale":[
				0.19597788155078888,
				0.05329205468297005,
				0.19597788155078888
			],
			"translation":[
				0.3897819519042969,
				2.171566963195801,
				-0.06917393207550049
			]
		},
		{
			"mesh":6,
			"name":"Cube.007",
			"rotation":[
				0,
				0,
				0.7071068286895752,
				0.7071068286895752
			],
			"scale":[
				0.16627131402492523,
				0.0452139750123024,
				0.16627131402492523
			],
			"translation":[
				0.3897819519042969,
				2.3004696369171143,
				2.1115942001342773
			]
		}
	],
	"materials":[
		{
			"doubleSided":true,
			"name":"Material.007",
			"pbrMetallicRoughness":{
				"baseColorFactor":[
					0.11499086022377014,
					0.030301935970783234,
					0.013810738921165466,
					1
				],
				"metallicFactor":0,
				"roughnessFactor":0.5
			}
		},
		{
			"doubleSided":true,
			"name":"Material.008",
			"pbrMetallicRoughness":{
				"baseColorFactor":[
					0.23175010085105896,
					0.12860801815986633,
					0.06821630895137787,
					1
				],
				"metallicFactor":0,
				"roughnessFactor":0.5
			}
		},
		{
			"doubleSided":true,
			"name":"Material",
			"pbrMetallicRoughness":{
				"baseColorFactor":[
					0.5374147295951843,
					0.22994990646839142,
					0.0818147212266922,
					1
				],
				"metallicFactor":0,
				"roughnessFactor":0.5
			}
		},
		{
			"doubleSided":true,
			"name":"Material.001",
			"pbrMetallicRoughness":{
				"baseColorFactor":[
					0.1913490891456604,
					0.05062011629343033,
					0.018265768885612488,
					1
				],
				"metallicFactor":0,
				"roughnessFactor":0.5
			}
		},
		{
			"doubleSided":true,
			"name":"Material.006",
			"pbrMetallicRoughness":{
				"baseColorFactor":[
					0.5889175534248352,
					0.2578609585762024,
					0.12424029409885406,
					1
				],
				"metallicFactor":0,
				"roughnessFactor":0.5
			}
		},
		{
			"doubleSided":true,
			"name":"Material.002",
			"pbrMetallicRoughness":{
				"baseColorFactor":[
					0.42489680647850037,
					0.10504506528377533,
					0.0439189113676548,
					1
				],
				"metallicFactor":0,
				"roughnessFactor":0.5
			}
		},
		{
			"doubleSided":true,
			"name":"Material.003",
			"pbrMetallicRoughness":{
				"baseColorFactor":[
					0.3126690685749054,
					0.19093850255012512,
					0.09340962767601013,
					1
				],
				"metallicFactor":0,
				"roughnessFactor":0.5
			}
		},
		{
			"doubleSided":true,
			"name":"Material.004",
			"pbrMetallicRoughness":{
				"baseColorFactor":[
					0.42489680647850037,
					0.17213796079158783,
					0.06418057531118393,
					1
				],
				"metallicFactor":0,
				"roughnessFactor":0.5
			}
		}
	],
	"meshes":[
		{
			"name":"Cube.001",
			"primitives":[
				{
					"attributes":{
						"POSITION":0,
						"NORMAL":1,
						"TEXCOORD_0":2
					},
					"indices":3,
					"material":0
				},
				{
					"attributes":{
						"POSITION":4,
						"NORMAL":5,
						"TEXCOORD_0":6
					},
					"indices":7,
					"material":1
				}
			]
		},
		{
			"name":"Cube.002",
			"primitives":[
				{
					"attributes":{
						"POSITION":8,
						"NORMAL":9,
						"TEXCOORD_0":10
					},
					"indices":11,
					"material":2
				},
				{
					"attributes":{
						"POSITION":12,
						"NORMAL":13,
						"TEXCOORD_0":14
					},
					"indices":15,
					"material":3
				}
			]
		},
		{
			"name":"Cube.003",
			"primitives":[
				{
					"attributes":{
						"POSITION":16,
						"NORMAL":17,
						"TEXCOORD_0":18
					},
					"indices":19,
					"material":4
				},
				{
					"attributes":{
						"POSITION":20,
						"NORMAL":21,
						"TEXCOORD_0":22
					},
					"indices":23,
					"material":0
				}
			]
		},
		{
			"name":"Cube.004",
			"primitives":[
				{
					"attributes":{
						"POSITION":24,
						"NORMAL":25,
						"TEXCOORD_0":26
					},
					"indices":27,
					"material":2
				},
				{
					"attributes":{
						"POSITION":28,
						"NORMAL":29,
						"TEXCOORD_0":30
					},
					"indices":31,
					"material":3
				}
			]
		},
		{
			"name":"Cube.005",
			"primitives":[
				{
					"attributes":{
						"POSITION":32,
						"NORMAL":33,
						"TEXCOORD_0":34
					},
					"indices":35,
					"material":2
				},
				{
					"attributes":{
						"POSITION":36,
						"NORMAL":37,
						"TEXCOORD_0":38
					},
					"indices":39,
					"material":5
				},
				{
					"attributes":{
						"POSITION":40,
						"NORMAL":41,
						"TEXCOORD_0":42
					},
					"indices":43,
					"material":6
				}
			]
		},
		{
			"name":"Cube.006",
			"primitives":[
				{
					"attributes":{
						"POSITION":44,
						"NORMAL":45,
						"TEXCOORD_0":46
					},
					"indices":47,
					"material":7
				},
				{
					"attributes":{
						"POSITION":48,
						"NORMAL":49,
						"TEXCOORD_0":50
					},
					"indices":51,
					"material":5
				}
			]
		},
		{
			"name":"Cube.007",
			"primitives":[
				{
					"attributes":{
						"POSITION":52,
						"NORMAL":53,
						"TEXCOORD_0":54
					},
					"indices":27,
					"material":2
				},
				{
					"attributes":{
						"POSITION":55,
						"NORMAL":56,
						"TEXCOORD_0":57
					},
					"indices":31,
					"material":3
				}
			]
		}
	],
	"accessors":[
		{
			"bufferView":0,
			"componentType":5126,
			"count":45,
			"max":[
				1,
				1,
				1
			],
			"min":[
				-1,
				-1,
				-1
			],
			"type":"VEC3"
		},
		{
			"bufferView":1,
			"componentType":5126,
			"count":45,
			"type":"VEC3"
		},
		{
			"bufferView":2,
			"componentType":5126,
			"count":45,
			"type":"VEC2"
		},
		{
			"bufferView":3,
			"componentType":5123,
			"count":78,
			"type":"SCALAR"
		},
		{
			"bufferView":4,
			"componentType":5126,
			"count":190,
			"max":[
				1,
				1,
				1
			],
			"min":[
				-1,
				-1,
				-1
			],
			"type":"VEC3"
		},
		{
			"bufferView":5,
			"componentType":5126,
			"count":190,
			"type":"VEC3"
		},
		{
			"bufferView":6,
			"componentType":5126,
			"count":190,
			"type":"VEC2"
		},
		{
			"bufferView":7,
			"componentType":5123,
			"count":666,
			"type":"SCALAR"
		},
		{
			"bufferView":8,
			"componentType":5126,
			"count":510,
			"max":[
				5.491274356842041,
				1.4251184463500977,
				1
			],
			"min":[
				-1.576734185218811,
				-0.42512011528015137,
				-1
			],
			"type":"VEC3"
		},
		{
			"bufferView":9,
			"componentType":5126,
			"count":510,
			"type":"VEC3"
		},
		{
			"bufferView":10,
			"componentType":5126,
			"count":510,
			"type":"VEC2"
		},
		{
			"bufferView":11,
			"componentType":5123,
			"count":1344,
			"type":"SCALAR"
		},
		{
			"bufferView":12,
			"componentType":5126,
			"count":86,
			"max":[
				5.491274356842041,
				1.4251184463500977,
				0.9057036638259888
			],
			"min":[
				-1.4824378490447998,
				-0.3400960862636566,
				-0.9057036638259888
			],
			"type":"VEC3"
		},
		{
			"bufferView":13,
			"componentType":5126,
			"count":86,
			"type":"VEC3"
		},
		{
			"bufferView":14,
			"componentType":5126,
			"count":86,
			"type":"VEC2"
		},
		{
			"bufferView":15,
			"componentType":5123,
			"count":228,
			"type":"SCALAR"
		},
		{
			"bufferView":16,
			"componentType":5126,
			"count":356,
			"max":[
				5.491274356842041,
				1.4251184463500977,
				1
			],
			"min":[
				-1.576734185218811,
				-0.42512011528015137,
				-1
			],
			"type":"VEC3"
		},
		{
			"bufferView":17,
			"componentType":5126,
			"count":356,
			"type":"VEC3"
		},
		{
			"bufferView":18,
			"componentType":5126,
			"count":356,
			"type":"VEC2"
		},
		{
			"bufferView":19,
			"componentType":5123,
			"count":678,
			"type":"SCALAR"
		},
		{
			"bufferView":20,
			"componentType":5126,
			"count":60,
			"max":[
				4.233717918395996,
				1.3060853481292725,
				0.9057036638259888
			],
			"min":[
				-1.4824378490447998,
				-0.3060864806175232,
				-0.9057036638259888
			],
			"type":"VEC3"
		},
		{
			"bufferView":21,
			"componentType":5126,
			"count":60,
			"type":"VEC3"
		},
		{
			"bufferView":22,
			"componentType":5126,
			"count":60,
			"type":"VEC2"
		},
		{
			"bufferView":23,
			"componentType":5123,
			"count":150,
			"type":"SCALAR"
		},
		{
			"bufferView":24,
			"componentType":5126,
			"count":372,
			"max":[
				5.491274356842041,
				1.4251184463500977,
				1
			],
			"min":[
				-1.576734185218811,
				-0.42512011528015137,
				-1
			],
			"type":"VEC3"
		},
		{
			"bufferView":25,
			"componentType":5126,
			"count":372,
			"type":"VEC3"
		},
		{
			"bufferView":26,
			"componentType":5126,
			"count":372,
			"type":"VEC2"
		},
		{
			"bufferView":27,
			"componentType":5123,
			"count":696,
			"type":"SCALAR"
		},
		{
			"bufferView":28,
			"componentType":5126,
			"count":64,
			"max":[
				4.892437934875488,
				1.3684360980987549,
				0.9057036638259888
			],
			"min":[
				-1.4824378490447998,
				-0.36843743920326233,
				-0.9057036638259888
			],
			"type":"VEC3"
		},
		{
			"bufferView":29,
			"componentType":5126,
			"count":64,
			"type":"VEC3"
		},
		{
			"bufferView":30,
			"componentType":5126,
			"count":64,
			"type":"VEC2"
		},
		{
			"bufferView":31,
			"componentType":5123,
			"count":132,
			"type":"SCALAR"
		},
		{
			"bufferView":32,
			"componentType":5126,
			"count":56,
			"max":[
				5.491274356842041,
				1.0850236415863037,
				1
			],
			"min":[
				-1.0043823719024658,
				-0.42512011528015137,
				-0.2534964084625244
			],
			"type":"VEC3"
		},
		{
			"bufferView":33,
			"componentType":5126,
			"count":56,
			"type":"VEC3"
		},
		{
			"bufferView":34,
			"componentType":5126,
			"count":56,
			"type":"VEC2"
		},
		{
			"bufferView":35,
			"componentType":5123,
			"count":114,
			"type":"SCALAR"
		},
		{
			"bufferView":36,
			"componentType":5126,
			"count":46,
			"max":[
				3.6947646141052246,
				1.170047402381897,
				0.9057036638259888
			],
			"min":[
				-1.4824378490447998,
				-0.25507205724716187,
				-0.9057036638259888
			],
			"type":"VEC3"
		},
		{
			"bufferView":37,
			"componentType":5126,
			"count":46,
			"type":"VEC3"
		},
		{
			"bufferView":38,
			"componentType":5126,
			"count":46,
			"type":"VEC2"
		},
		{
			"bufferView":39,
			"componentType":5123,
			"count":108,
			"type":"SCALAR"
		},
		{
			"bufferView":40,
			"componentType":5126,
			"count":314,
			"max":[
				5.491274356842041,
				1.4251184463500977,
				1
			],
			"min":[
				-1.576734185218811,
				-0.42512011528015137,
				-1
			],
			"type":"VEC3"
		},
		{
			"bufferView":41,
			"componentType":5126,
			"count":314,
			"type":"VEC3"
		},
		{
			"bufferView":42,
			"componentType":5126,
			"count":314,
			"type":"VEC2"
		},
		{
			"bufferView":43,
			"componentType":5123,
			"count":606,
			"type":"SCALAR"
		},
		{
			"bufferView":44,
			"componentType":5126,
			"count":236,
			"max":[
				5.191856384277344,
				1.3967772722244263,
				1
			],
			"min":[
				-1.576734185218811,
				-0.39677879214286804,
				-1
			],
			"type":"VEC3"
		},
		{
			"bufferView":45,
			"componentType":5126,
			"count":236,
			"type":"VEC3"
		},
		{
			"bufferView":46,
			"componentType":5126,
			"count":236,
			"type":"VEC2"
		},
		{
			"bufferView":47,
			"componentType":5123,
			"count":510,
			"type":"SCALAR"
		},
		{
			"bufferView":48,
			"componentType":5126,
			"count":180,
			"max":[
				5.491274356842041,
				1.4251184463500977,
				1
			],
			"min":[
				-1.576734185218811,
				-0.42512011528015137,
				-1
			],
			"type":"VEC3"
		},
		{
			"bufferView":49,
			"componentType":5126,
			"count":180,
			"type":"VEC3"
		},
		{
			"bufferView":50,
			"componentType":5126,
			"count":180,
			"type":"VEC2"
		},
		{
			"bufferView":51,
			"componentType":5123,
			"count":318,
			"type":"SCALAR"
		},
		{
			"bufferView":52,
			"componentType":5126,
			"count":372,
			"max":[
				5.491274356842041,
				1.4251184463500977,
				1
			],
			"min":[
				-1.576734185218811,
				-0.42512011528015137,
				-1
			],
			"type":"VEC3"
		},
		{
			"bufferView":53,
			"componentType":5126,
			"count":372,
			"type":"VEC3"
		},
		{
			"bufferView":54,
			"componentType":5126,
			"count":372,
			"type":"VEC2"
		},
		{
			"bufferView":55,
			"componentType":5126,
			"count":64,
			"max":[
				4.892437934875488,
				1.3684360980987549,
				0.9057036638259888
			],
			"min":[
				-1.4824378490447998,
				-0.36843743920326233,
				-0.9057036638259888
			],
			"type":"VEC3"
		},
		{
			"bufferView":56,
			"componentType":5126,
			"count":64,
			"type":"VEC3"
		},
		{
			"bufferView":57,
			"componentType":5126,
			"count":64,
			"type":"VEC2"
		}
	],
	"bufferViews":[
		{
			"buffer":0,
			"byteLength":540,
			"byteOffset":0,
			"target":34962
		},
		{
			"buffer":0,
			"byteLength":540,
			"byteOffset":540,
			"target":34962
		},
		{
			"buffer":0,
			"byteLength":360,
			"byteOffset":1080,
			"target":34962
		},
		{
			"buffer":0,
			"byteLength":156,
			"byteOffset":1440,
			"target":34963
		},
		{
			"buffer":0,
			"byteLength":2280,
			"byteOffset":1596,
			"target":34962
		},
		{
			"buffer":0,
			"byteLength":2280,
			"byteOffset":3876,
			"target":34962
		},
		{
			"buffer":0,
			"byteLength":1520,
			"byteOffset":6156,
			"target":34962
		},
		{
			"buffer":0,
			"byteLength":1332,
			"byteOffset":7676,
			"target":34963
		},
		{
			"buffer":0,
			"byteLength":6120,
			"byteOffset":9008,
			"target":34962
		},
		{
			"buffer":0,
			"byteLength":6120,
			"byteOffset":15128,
			"target":34962
		},
		{
			"buffer":0,
			"byteLength":4080,
			"byteOffset":21248,
			"target":34962
		},
		{
			"buffer":0,
			"byteLength":2688,
			"byteOffset":25328,
			"target":34963
		},
		{
			"buffer":0,
			"byteLength":1032,
			"byteOffset":28016,
			"target":34962
		},
		{
			"buffer":0,
			"byteLength":1032,
			"byteOffset":29048,
			"target":34962
		},
		{
			"buffer":0,
			"byteLength":688,
			"byteOffset":30080,
			"target":34962
		},
		{
			"buffer":0,
			"byteLength":456,
			"byteOffset":30768,
			"target":34963
		},
		{
			"buffer":0,
			"byteLength":4272,
			"byteOffset":31224,
			"target":34962
		},
		{
			"buffer":0,
			"byteLength":4272,
			"byteOffset":35496,
			"target":34962
		},
		{
			"buffer":0,
			"byteLength":2848,
			"byteOffset":39768,
			"target":34962
		},
		{
			"buffer":0,
			"byteLength":1356,
			"byteOffset":42616,
			"target":34963
		},
		{
			"buffer":0,
			"byteLength":720,
			"byteOffset":43972,
			"target":34962
		},
		{
			"buffer":0,
			"byteLength":720,
			"byteOffset":44692,
			"target":34962
		},
		{
			"buffer":0,
			"byteLength":480,
			"byteOffset":45412,
			"target":34962
		},
		{
			"buffer":0,
			"byteLength":300,
			"byteOffset":45892,
			"target":34963
		},
		{
			"buffer":0,
			"byteLength":4464,
			"byteOffset":46192,
			"target":34962
		},
		{
			"buffer":0,
			"byteLength":4464,
			"byteOffset":50656,
			"target":34962
		},
		{
			"buffer":0,
			"byteLength":2976,
			"byteOffset":55120,
			"target":34962
		},
		{
			"buffer":0,
			"byteLength":1392,
			"byteOffset":58096,
			"target":34963
		},
		{
			"buffer":0,
			"byteLength":768,
			"byteOffset":59488,
			"target":34962
		},
		{
			"buffer":0,
			"byteLength":768,
			"byteOffset":60256,
			"target":34962
		},
		{
			"buffer":0,
			"byteLength":512,
			"byteOffset":61024,
			"target":34962
		},
		{
			"buffer":0,
			"byteLength":264,
			"byteOffset":61536,
			"target":34963
		},
		{
			"buffer":0,
			"byteLength":672,
			"byteOffset":61800,
			"target":34962
		},
		{
			"buffer":0,
			"byteLength":672,
			"byteOffset":62472,
			"target":34962
		},
		{
			"buffer":0,
			"byteLength":448,
			"byteOffset":63144,
			"target":34962
		},
		{
			"buffer":0,
			"byteLength":228,
			"byteOffset":63592,
			"target":34963
		},
		{
			"buffer":0,
			"byteLength":552,
			"byteOffset":63820,
			"target":34962
		},
		{
			"buffer":0,
			"byteLength":552,
			"byteOffset":64372,
			"target":34962
		},
		{
			"buffer":0,
			"byteLength":368,
			"byteOffset":64924,
			"target":34962
		},
		{
			"buffer":0,
			"byteLength":216,
			"byteOffset":65292,
			"target":34963
		},
		{
			"buffer":0,
			"byteLength":3768,
			"byteOffset":65508,
			"target":34962
		},
		{
			"buffer":0,
			"byteLength":3768,
			"byteOffset":69276,
			"target":34962
		},
		{
			"buffer":0,
			"byteLength":2512,
			"byteOffset":73044,
			"target":34962
		},
		{
			"buffer":0,
			"byteLength":1212,
			"byteOffset":75556,
			"target":34963
		},
		{
			"buffer":0,
			"byteLength":2832,
			"byteOffset":76768,
			"target":34962
		},
		{
			"buffer":0,
			"byteLength":2832,
			"byteOffset":79600,
			"target":34962
		},
		{
			"buffer":0,
			"byteLength":1888,
			"byteOffset":82432,
			"target":34962
		},
		{
			"buffer":0,
			"byteLength":1020,
			"byteOffset":84320,
			"target":34963
		},
		{
			"buffer":0,
			"byteLength":2160,
			"byteOffset":85340,
			"target":34962
		},
		{
			"buffer":0,
			"byteLength":2160,
			"byteOffset":87500,
			"target":34962
		},
		{
			"buffer":0,
			"byteLength":1440,
			"byteOffset":89660,
			"target":34962
		},
		{
			"buffer":0,
			"byteLength":636,
			"byteOffset":91100,
			"target":34963
		},
		{
			"buffer":0,
			"byteLength":4464,
			"byteOffset":91736,
			"target":34962
		},
		{
			"buffer":0,
			"byteLength":4464,
			"byteOffset":96200,
			"target":34962
		},
		{
			"buffer":0,
			"byteLength":2976,
			"byteOffset":100664,
			"target":34962
		},
		{
			"buffer":0,
			"byteLength":768,
			"byteOffset":103640,
			"target":34962
		},
		{
			"buffer":0,
			"byteLength":768,
			"byteOffset":104408,
			"target":34962
		},
		{
			"buffer":0,
			"byteLength":512,
			"byteOffset":105176,
			"target":34962
		}
	],
	"buffers":[
		{
			"byteLength":105688,
			"uri":"cucharas.bin"
		}
	]
}
