{
	"asset":{
		"generator":"Khronos glTF Blender I/O v4.3.47",
		"version":"2.0"
	},
	"extensionsUsed":[
		"KHR_materials_specular",
		"KHR_materials_ior"
	],
	"scene":0,
	"scenes":[
		{
			"name":"Scene",
			"nodes":[
				0,
				1,
				6,
				7,
				8,
				9
			]
		}
	],
	"nodes":[
		{
			"mesh":0,
			"name":"Cone.002",
			"rotation":[
				0.716326892375946,
				0.021149111911654472,
				-0.41041743755340576,
				0.5639026165008545
			],
			"scale":[
				0.014030637219548225,
				0.014030644670128822,
				0.014030644670128822
			],
			"translation":[
				0.06287245452404022,
				4.435180187225342,
				-1.39383065700531
			]
		},
		{
			"mesh":1,
			"name":"Circle",
			"rotation":[
				0,
				0.32134899497032166,
				0,
				0.9469608664512634
			],
			"translation":[
				0.007400389760732651,
				3.546537399291992,
				-1.3506873846054077
			]
		},
		{
			"mesh":2,
			"name":"Object_3",
			"scale":[
				1.2903622388839722,
				1.2903623580932617,
				1.2903622388839722
			],
			"translation":[
				0,
				0,
				0.09554104506969452
			]
		},
		{
			"mesh":3,
			"name":"Object_4",
			"scale":[
				1.2903622388839722,
				1.2903623580932617,
				1.2903622388839722
			],
			"translation":[
				0,
				0,
				0.09554104506969452
			]
		},
		{
			"mesh":4,
			"name":"Object_5",
			"scale":[
				1.2903622388839722,
				1.2903623580932617,
				1.2903622388839722
			],
			"translation":[
				0,
				0,
				0.09554104506969452
			]
		},
		{
			"children":[
				2,
				3,
				4
			],
			"name":"virgen madera.obj.cleaner.materialmerger.gles"
		},
		{
			"children":[
				5
			],
			"name":"Sketchfab_model",
			"rotation":[
				-0.026309967041015625,
				-0.7066171169281006,
				-0.7066171765327454,
				0.026309968903660774
			],
			"scale":[
				0.16378559172153473,
				0.16378557682037354,
				0.16378557682037354
			],
			"translation":[
				-0.9551118016242981,
				3.146132707595825,
				0.1525244116783142
			]
		},
		{
			"mesh":5,
			"name":"Object_2.001",
			"rotation":[
				-0.691425621509552,
				0.1480896770954132,
				0.1480897068977356,
				0.6914256811141968
			],
			"scale":[
				0.9927440881729126,
				0.9927441477775574,
				0.9927440881729126
			],
			"translation":[
				0.6248663663864136,
				3.158426284790039,
				1.3829973936080933
			]
		},
		{
			"mesh":6,
			"name":"Plane",
			"scale":[
				1,
				1,
				2.1609134674072266
			],
			"translation":[
				-0.0447239875793457,
				3.356215000152588,
				0
			]
		},
		{
			"mesh":7,
			"name":"Cube",
			"rotation":[
				0,
				1,
				0,
				0
			],
			"scale":[
				-1.4716256856918335,
				-0.1786448359489441,
				-2.3487558364868164
			],
			"translation":[
				0,
				3.165897846221924,
				0
			]
		}
	],
	"materials":[
		{
			"doubleSided":true,
			"name":"Material.008",
			"pbrMetallicRoughness":{
				"baseColorFactor":[
					0.009256481193006039,
					0.0033616821747273207,
					0.005383897572755814,
					1
				],
				"metallicFactor":0,
				"roughnessFactor":0.5
			}
		},
		{
			"doubleSided":true,
			"name":"Material.006",
			"pbrMetallicRoughness":{
				"baseColorTexture":{
					"index":0
				},
				"metallicRoughnessTexture":{
					"index":1
				},
				"roughnessFactor":0.5
			}
		},
		{
			"alphaMode":"BLEND",
			"doubleSided":true,
			"name":"Material.007",
			"pbrMetallicRoughness":{
				"baseColorTexture":{
					"index":2
				},
				"metallicFactor":0,
				"roughnessFactor":0.5
			}
		},
		{
			"alphaMode":"BLEND",
			"doubleSided":true,
			"name":"Material.009",
			"pbrMetallicRoughness":{
				"baseColorTexture":{
					"index":3
				},
				"metallicFactor":0,
				"roughnessFactor":0.5
			}
		},
		{
			"doubleSided":true,
			"name":"Material.013",
			"pbrMetallicRoughness":{
				"baseColorFactor":[
					0.21993547677993774,
					0.01737060397863388,
					0.007002555299550295,
					1
				],
				"metallicFactor":0,
				"roughnessFactor":0.5
			}
		},
		{
			"doubleSided":true,
			"name":"Material.014",
			"pbrMetallicRoughness":{
				"baseColorFactor":[
					0.7358317375183105,
					0.22655315697193146,
					0.34308451414108276,
					1
				],
				"metallicFactor":0,
				"roughnessFactor":0.5
			}
		},
		{
			"doubleSided":true,
			"extensions":{
				"KHR_materials_specular":{
					"specularColorFactor":[
						0.0,
						0.0,
						0.0
					]
				},
				"KHR_materials_ior":{
					"ior":1000
				}
			},
			"name":"virgen_madera",
			"pbrMetallicRoughness":{
				"baseColorTexture":{
					"index":4
				},
				"metallicFactor":0
			}
		},
		{
			"doubleSided":true,
			"name":"phong1SG",
			"normalTexture":{
				"index":5
			},
			"occlusionTexture":{
				"index":6
			},
			"pbrMetallicRoughness":{
				"baseColorTexture":{
					"index":7
				},
				"metallicRoughnessTexture":{
					"index":6
				},
				"roughnessFactor":0.3117988705635071
			}
		},
		{
			"doubleSided":true,
			"name":"Material.003",
			"pbrMetallicRoughness":{
				"baseColorFactor":[
					0.430225670337677,
					0.7574524283409119,
					0.8006223440170288,
					1
				],
				"metallicFactor":0,
				"roughnessFactor":0.5
			}
		},
		{
			"doubleSided":true,
			"name":"Material.004",
			"pbrMetallicRoughness":{
				"baseColorFactor":[
					0.049614276736974716,
					0.050866901874542236,
					0.16503596305847168,
					1
				],
				"metallicFactor":0,
				"roughnessFactor":0.5
			}
		},
		{
			"doubleSided":true,
			"name":"Material.005",
			"pbrMetallicRoughness":{
				"baseColorFactor":[
					0.49819064140319824,
					0.22431308031082153,
					0.232875794172287,
					1
				],
				"metallicFactor":0,
				"roughnessFactor":0.5
			}
		},
		{
			"doubleSided":true,
			"name":"Material",
			"pbrMetallicRoughness":{
				"baseColorFactor":[
					0.39915162324905396,
					0.2132141888141632,
					0.09947746992111206,
					1
				],
				"metallicFactor":0,
				"roughnessFactor":0.5
			}
		},
		{
			"doubleSided":true,
			"name":"Material.001",
			"pbrMetallicRoughness":{
				"baseColorFactor":[
					0.07834971696138382,
					0.03276509419083595,
					0.014462282881140709,
					1
				],
				"metallicFactor":0,
				"roughnessFactor":0.5
			}
		}
	],
	"meshes":[
		{
			"name":"Cone.002",
			"primitives":[
				{
					"attributes":{
						"POSITION":0,
						"NORMAL":1,
						"TEXCOORD_0":2
					},
					"indices":3,
					"material":0
				},
				{
					"attributes":{
						"POSITION":4,
						"NORMAL":5,
						"TEXCOORD_0":6
					},
					"indices":7,
					"material":1
				},
				{
					"attributes":{
						"POSITION":8,
						"NORMAL":9,
						"TEXCOORD_0":10
					},
					"indices":11,
					"material":2
				},
				{
					"attributes":{
						"POSITION":12,
						"NORMAL":13,
						"TEXCOORD_0":14
					},
					"indices":15,
					"material":3
				}
			]
		},
		{
			"name":"Circle",
			"primitives":[
				{
					"attributes":{
						"POSITION":16,
						"NORMAL":17,
						"TEXCOORD_0":18
					},
					"indices":19,
					"material":4
				},
				{
					"attributes":{
						"POSITION":20,
						"NORMAL":21,
						"TEXCOORD_0":22
					},
					"indices":23,
					"material":5
				}
			]
		},
		{
			"name":"Object_1",
			"primitives":[
				{
					"attributes":{
						"POSITION":24,
						"NORMAL":25,
						"TEXCOORD_0":26
					},
					"indices":27,
					"material":6
				}
			]
		},
		{
			"name":"Object_2",
			"primitives":[
				{
					"attributes":{
						"POSITION":28,
						"NORMAL":29,
						"TEXCOORD_0":30
					},
					"indices":31,
					"material":6
				}
			]
		},
		{
			"name":"Object_3",
			"primitives":[
				{
					"attributes":{
						"POSITION":32,
						"NORMAL":33,
						"TEXCOORD_0":34
					},
					"indices":35,
					"material":6
				}
			]
		},
		{
			"name":"Object_0.001",
			"primitives":[
				{
					"attributes":{
						"POSITION":36,
						"NORMAL":37,
						"TEXCOORD_0":38
					},
					"indices":39,
					"material":7
				}
			]
		},
		{
			"name":"Plane.001",
			"primitives":[
				{
					"attributes":{
						"POSITION":40,
						"NORMAL":41,
						"TEXCOORD_0":42
					},
					"indices":43,
					"material":8
				},
				{
					"attributes":{
						"POSITION":44,
						"NORMAL":45,
						"TEXCOORD_0":46
					},
					"indices":47,
					"material":9
				},
				{
					"attributes":{
						"POSITION":48,
						"NORMAL":49,
						"TEXCOORD_0":50
					},
					"indices":51,
					"material":10
				}
			]
		},
		{
			"name":"Cube",
			"primitives":[
				{
					"attributes":{
						"POSITION":52,
						"NORMAL":53,
						"TEXCOORD_0":54
					},
					"indices":55,
					"material":11
				},
				{
					"attributes":{
						"POSITION":56,
						"NORMAL":57,
						"TEXCOORD_0":58
					},
					"indices":59,
					"material":12
				}
			]
		}
	],
	"textures":[
		{
			"sampler":0,
			"source":0
		},
		{
			"sampler":0,
			"source":1
		},
		{
			"sampler":0,
			"source":2
		},
		{
			"sampler":0,
			"source":3
		},
		{
			"sampler":0,
			"source":4
		},
		{
			"sampler":0,
			"source":5
		},
		{
			"sampler":0,
			"source":6
		},
		{
			"sampler":0,
			"source":7
		}
	],
	"images":[
		{
			"mimeType":"image/png",
			"name":"petalo4-Photoroom 1",
			"uri":"petalo4-Photoroom%201.png"
		},
		{
			"mimeType":"image/png",
			"name":"petalo4-Photoroom 1-1",
			"uri":"petalo4-Photoroom%201-1.png"
		},
		{
			"mimeType":"image/png",
			"name":"petalo4-Photoroom",
			"uri":"petalo4-Photoroom.png"
		},
		{
			"mimeType":"image/png",
			"name":"hoja1-Photoroom",
			"uri":"hoja1-Photoroom.png"
		},
		{
			"mimeType":"image/jpeg",
			"name":"virgen_madera_diffuse",
			"uri":"virgen_madera_diffuse.jpg"
		},
		{
			"mimeType":"image/png",
			"name":"phong1SG_normal",
			"uri":"phong1SG_normal.png"
		},
		{
			"mimeType":"image/png",
			"name":"phong1SG_metallicRoughness",
			"uri":"phong1SG_metallicRoughness.png"
		},
		{
			"mimeType":"image/png",
			"name":"phong1SG_baseColor",
			"uri":"phong1SG_baseColor.png"
		}
	],
	"accessors":[
		{
			"bufferView":0,
			"componentType":5126,
			"count":1858,
			"max":[
				7.512506484985352,
				4.199782371520996,
				20.647537231445312
			],
			"min":[
				-1.000000238418579,
				-14.902152061462402,
				-49.11372375488281
			],
			"type":"VEC3"
		},
		{
			"bufferView":1,
			"componentType":5126,
			"count":1858,
			"type":"VEC3"
		},
		{
			"bufferView":2,
			"componentType":5126,
			"count":1858,
			"type":"VEC2"
		},
		{
			"bufferView":3,
			"componentType":5123,
			"count":2652,
			"type":"SCALAR"
		},
		{
			"bufferView":4,
			"componentType":5126,
			"count":3405,
			"max":[
				33.54496765136719,
				4.018964767456055,
				-38.598079681396484
			],
			"min":[
				-2.0930018424987793,
				-35.97715377807617,
				-72.07614135742188
			],
			"type":"VEC3"
		},
		{
			"bufferView":5,
			"componentType":5126,
			"count":3405,
			"type":"VEC3"
		},
		{
			"bufferView":6,
			"componentType":5126,
			"count":3405,
			"type":"VEC2"
		},
		{
			"bufferView":7,
			"componentType":5123,
			"count":5376,
			"type":"SCALAR"
		},
		{
			"bufferView":8,
			"componentType":5126,
			"count":3076,
			"max":[
				30.19112205505371,
				-1.2849750518798828,
				-45.042686462402344
			],
			"min":[
				3.7778782844543457,
				-30.00252914428711,
				-70.50157165527344
			],
			"type":"VEC3"
		},
		{
			"bufferView":9,
			"componentType":5126,
			"count":3076,
			"type":"VEC3"
		},
		{
			"bufferView":10,
			"componentType":5126,
			"count":3076,
			"type":"VEC2"
		},
		{
			"bufferView":11,
			"componentType":5123,
			"count":4608,
			"type":"SCALAR"
		},
		{
			"bufferView":12,
			"componentType":5126,
			"count":536,
			"max":[
				9.53184700012207,
				11.613871574401855,
				-7.388769626617432
			],
			"min":[
				-3.9066104888916016,
				-30.293319702148438,
				-23.883756637573242
			],
			"type":"VEC3"
		},
		{
			"bufferView":13,
			"componentType":5126,
			"count":536,
			"type":"VEC3"
		},
		{
			"bufferView":14,
			"componentType":5126,
			"count":536,
			"type":"VEC2"
		},
		{
			"bufferView":15,
			"componentType":5123,
			"count":864,
			"type":"SCALAR"
		},
		{
			"bufferView":16,
			"componentType":5126,
			"count":1185,
			"max":[
				0.48074159026145935,
				0.9312121272087097,
				0.4807398319244385
			],
			"min":[
				-0.48074159026145935,
				-0.18446582555770874,
				-0.48074331879615784
			],
			"type":"VEC3"
		},
		{
			"bufferView":17,
			"componentType":5126,
			"count":1185,
			"type":"VEC3"
		},
		{
			"bufferView":18,
			"componentType":5126,
			"count":1185,
			"type":"VEC2"
		},
		{
			"bufferView":19,
			"componentType":5123,
			"count":1824,
			"type":"SCALAR"
		},
		{
			"bufferView":20,
			"componentType":5126,
			"count":542,
			"max":[
				0.48074159026145935,
				1.002105951309204,
				0.4807398319244385
			],
			"min":[
				-0.48074159026145935,
				0.1632903814315796,
				-0.48074331879615784
			],
			"type":"VEC3"
		},
		{
			"bufferView":21,
			"componentType":5126,
			"count":542,
			"type":"VEC3"
		},
		{
			"bufferView":22,
			"componentType":5126,
			"count":542,
			"type":"VEC2"
		},
		{
			"bufferView":23,
			"componentType":5123,
			"count":768,
			"type":"SCALAR"
		},
		{
			"bufferView":24,
			"componentType":5126,
			"count":65677,
			"max":[
				1.8820075988769531,
				2.154149055480957,
				11.49279499053955
			],
			"min":[
				-1.664513111114502,
				-2.2585768699645996,
				1.265260934829712
			],
			"type":"VEC3"
		},
		{
			"bufferView":25,
			"componentType":5126,
			"count":65677,
			"type":"VEC3"
		},
		{
			"bufferView":26,
			"componentType":5126,
			"count":65677,
			"type":"VEC2"
		},
		{
			"bufferView":27,
			"componentType":5125,
			"count":295461,
			"type":"SCALAR"
		},
		{
			"bufferView":28,
			"componentType":5126,
			"count":65588,
			"max":[
				1.880216121673584,
				2.151139259338379,
				11.528000831604004
			],
			"min":[
				-1.6627558469772339,
				-2.258904218673706,
				1.2665807008743286
			],
			"type":"VEC3"
		},
		{
			"bufferView":29,
			"componentType":5126,
			"count":65588,
			"type":"VEC3"
		},
		{
			"bufferView":30,
			"componentType":5126,
			"count":65588,
			"type":"VEC2"
		},
		{
			"bufferView":31,
			"componentType":5125,
			"count":252696,
			"type":"SCALAR"
		},
		{
			"bufferView":32,
			"componentType":5126,
			"count":31360,
			"max":[
				1.8813846111297607,
				2.154149055480957,
				11.53061294555664
			],
			"min":[
				-1.664513111114502,
				-2.254401445388794,
				1.265958309173584
			],
			"type":"VEC3"
		},
		{
			"bufferView":33,
			"componentType":5126,
			"count":31360,
			"type":"VEC3"
		},
		{
			"bufferView":34,
			"componentType":5126,
			"count":31360,
			"type":"VEC2"
		},
		{
			"bufferView":35,
			"componentType":5123,
			"count":73320,
			"type":"SCALAR"
		},
		{
			"bufferView":36,
			"componentType":5126,
			"count":2759,
			"max":[
				0.33542799949645996,
				0.5613020062446594,
				1.25163996219635
			],
			"min":[
				-0.7134190201759338,
				-0.8973690271377563,
				0.19235500693321228
			],
			"type":"VEC3"
		},
		{
			"bufferView":37,
			"componentType":5126,
			"count":2759,
			"type":"VEC3"
		},
		{
			"bufferView":38,
			"componentType":5126,
			"count":2759,
			"type":"VEC2"
		},
		{
			"bufferView":39,
			"componentType":5123,
			"count":8208,
			"type":"SCALAR"
		},
		{
			"bufferView":40,
			"componentType":5126,
			"count":18,
			"max":[
				1,
				0,
				0.8326663970947266
			],
			"min":[
				-1,
				0,
				-0.849618673324585
			],
			"type":"VEC3"
		},
		{
			"bufferView":41,
			"componentType":5126,
			"count":18,
			"type":"VEC3"
		},
		{
			"bufferView":42,
			"componentType":5126,
			"count":18,
			"type":"VEC2"
		},
		{
			"bufferView":43,
			"componentType":5123,
			"count":60,
			"type":"SCALAR"
		},
		{
			"bufferView":44,
			"componentType":5126,
			"count":24,
			"max":[
				1,
				0,
				1
			],
			"min":[
				-1,
				0,
				-1
			],
			"type":"VEC3"
		},
		{
			"bufferView":45,
			"componentType":5126,
			"count":24,
			"type":"VEC3"
		},
		{
			"bufferView":46,
			"componentType":5126,
			"count":24,
			"type":"VEC2"
		},
		{
			"bufferView":47,
			"componentType":5123,
			"count":60,
			"type":"SCALAR"
		},
		{
			"bufferView":48,
			"componentType":5126,
			"count":24,
			"max":[
				1,
				0,
				0.8750046491622925
			],
			"min":[
				-1,
				0,
				-0.8979709148406982
			],
			"type":"VEC3"
		},
		{
			"bufferView":49,
			"componentType":5126,
			"count":24,
			"type":"VEC3"
		},
		{
			"bufferView":50,
			"componentType":5126,
			"count":24,
			"type":"VEC2"
		},
		{
			"bufferView":51,
			"componentType":5123,
			"count":60,
			"type":"SCALAR"
		},
		{
			"bufferView":52,
			"componentType":5126,
			"count":248,
			"max":[
				1,
				17.570955276489258,
				1
			],
			"min":[
				-1,
				-1,
				-1
			],
			"type":"VEC3"
		},
		{
			"bufferView":53,
			"componentType":5126,
			"count":248,
			"type":"VEC3"
		},
		{
			"bufferView":54,
			"componentType":5126,
			"count":248,
			"type":"VEC2"
		},
		{
			"bufferView":55,
			"componentType":5123,
			"count":804,
			"type":"SCALAR"
		},
		{
			"bufferView":56,
			"componentType":5126,
			"count":160,
			"max":[
				1,
				1,
				1
			],
			"min":[
				-1,
				-1,
				-1
			],
			"type":"VEC3"
		},
		{
			"bufferView":57,
			"componentType":5126,
			"count":160,
			"type":"VEC3"
		},
		{
			"bufferView":58,
			"componentType":5126,
			"count":160,
			"type":"VEC2"
		},
		{
			"bufferView":59,
			"componentType":5123,
			"count":288,
			"type":"SCALAR"
		}
	],
	"bufferViews":[
		{
			"buffer":0,
			"byteLength":22296,
			"byteOffset":0,
			"target":34962
		},
		{
			"buffer":0,
			"byteLength":22296,
			"byteOffset":22296,
			"target":34962
		},
		{
			"buffer":0,
			"byteLength":14864,
			"byteOffset":44592,
			"target":34962
		},
		{
			"buffer":0,
			"byteLength":5304,
			"byteOffset":59456,
			"target":34963
		},
		{
			"buffer":0,
			"byteLength":40860,
			"byteOffset":64760,
			"target":34962
		},
		{
			"buffer":0,
			"byteLength":40860,
			"byteOffset":105620,
			"target":34962
		},
		{
			"buffer":0,
			"byteLength":27240,
			"byteOffset":146480,
			"target":34962
		},
		{
			"buffer":0,
			"byteLength":10752,
			"byteOffset":173720,
			"target":34963
		},
		{
			"buffer":0,
			"byteLength":36912,
			"byteOffset":184472,
			"target":34962
		},
		{
			"buffer":0,
			"byteLength":36912,
			"byteOffset":221384,
			"target":34962
		},
		{
			"buffer":0,
			"byteLength":24608,
			"byteOffset":258296,
			"target":34962
		},
		{
			"buffer":0,
			"byteLength":9216,
			"byteOffset":282904,
			"target":34963
		},
		{
			"buffer":0,
			"byteLength":6432,
			"byteOffset":292120,
			"target":34962
		},
		{
			"buffer":0,
			"byteLength":6432,
			"byteOffset":298552,
			"target":34962
		},
		{
			"buffer":0,
			"byteLength":4288,
			"byteOffset":304984,
			"target":34962
		},
		{
			"buffer":0,
			"byteLength":1728,
			"byteOffset":309272,
			"target":34963
		},
		{
			"buffer":0,
			"byteLength":14220,
			"byteOffset":311000,
			"target":34962
		},
		{
			"buffer":0,
			"byteLength":14220,
			"byteOffset":325220,
			"target":34962
		},
		{
			"buffer":0,
			"byteLength":9480,
			"byteOffset":339440,
			"target":34962
		},
		{
			"buffer":0,
			"byteLength":3648,
			"byteOffset":348920,
			"target":34963
		},
		{
			"buffer":0,
			"byteLength":6504,
			"byteOffset":352568,
			"target":34962
		},
		{
			"buffer":0,
			"byteLength":6504,
			"byteOffset":359072,
			"target":34962
		},
		{
			"buffer":0,
			"byteLength":4336,
			"byteOffset":365576,
			"target":34962
		},
		{
			"buffer":0,
			"byteLength":1536,
			"byteOffset":369912,
			"target":34963
		},
		{
			"buffer":0,
			"byteLength":788124,
			"byteOffset":371448,
			"target":34962
		},
		{
			"buffer":0,
			"byteLength":788124,
			"byteOffset":1159572,
			"target":34962
		},
		{
			"buffer":0,
			"byteLength":525416,
			"byteOffset":1947696,
			"target":34962
		},
		{
			"buffer":0,
			"byteLength":1181844,
			"byteOffset":2473112,
			"target":34963
		},
		{
			"buffer":0,
			"byteLength":787056,
			"byteOffset":3654956,
			"target":34962
		},
		{
			"buffer":0,
			"byteLength":787056,
			"byteOffset":4442012,
			"target":34962
		},
		{
			"buffer":0,
			"byteLength":524704,
			"byteOffset":5229068,
			"target":34962
		},
		{
			"buffer":0,
			"byteLength":1010784,
			"byteOffset":5753772,
			"target":34963
		},
		{
			"buffer":0,
			"byteLength":376320,
			"byteOffset":6764556,
			"target":34962
		},
		{
			"buffer":0,
			"byteLength":376320,
			"byteOffset":7140876,
			"target":34962
		},
		{
			"buffer":0,
			"byteLength":250880,
			"byteOffset":7517196,
			"target":34962
		},
		{
			"buffer":0,
			"byteLength":146640,
			"byteOffset":7768076,
			"target":34963
		},
		{
			"buffer":0,
			"byteLength":33108,
			"byteOffset":7914716,
			"target":34962
		},
		{
			"buffer":0,
			"byteLength":33108,
			"byteOffset":7947824,
			"target":34962
		},
		{
			"buffer":0,
			"byteLength":22072,
			"byteOffset":7980932,
			"target":34962
		},
		{
			"buffer":0,
			"byteLength":16416,
			"byteOffset":8003004,
			"target":34963
		},
		{
			"buffer":0,
			"byteLength":216,
			"byteOffset":8019420,
			"target":34962
		},
		{
			"buffer":0,
			"byteLength":216,
			"byteOffset":8019636,
			"target":34962
		},
		{
			"buffer":0,
			"byteLength":144,
			"byteOffset":8019852,
			"target":34962
		},
		{
			"buffer":0,
			"byteLength":120,
			"byteOffset":8019996,
			"target":34963
		},
		{
			"buffer":0,
			"byteLength":288,
			"byteOffset":8020116,
			"target":34962
		},
		{
			"buffer":0,
			"byteLength":288,
			"byteOffset":8020404,
			"target":34962
		},
		{
			"buffer":0,
			"byteLength":192,
			"byteOffset":8020692,
			"target":34962
		},
		{
			"buffer":0,
			"byteLength":120,
			"byteOffset":8020884,
			"target":34963
		},
		{
			"buffer":0,
			"byteLength":288,
			"byteOffset":8021004,
			"target":34962
		},
		{
			"buffer":0,
			"byteLength":288,
			"byteOffset":8021292,
			"target":34962
		},
		{
			"buffer":0,
			"byteLength":192,
			"byteOffset":8021580,
			"target":34962
		},
		{
			"buffer":0,
			"byteLength":120,
			"byteOffset":8021772,
			"target":34963
		},
		{
			"buffer":0,
			"byteLength":2976,
			"byteOffset":8021892,
			"target":34962
		},
		{
			"buffer":0,
			"byteLength":2976,
			"byteOffset":8024868,
			"target":34962
		},
		{
			"buffer":0,
			"byteLength":1984,
			"byteOffset":8027844,
			"target":34962
		},
		{
			"buffer":0,
			"byteLength":1608,
			"byteOffset":8029828,
			"target":34963
		},
		{
			"buffer":0,
			"byteLength":1920,
			"byteOffset":8031436,
			"target":34962
		},
		{
			"buffer":0,
			"byteLength":1920,
			"byteOffset":8033356,
			"target":34962
		},
		{
			"buffer":0,
			"byteLength":1280,
			"byteOffset":8035276,
			"target":34962
		},
		{
			"buffer":0,
			"byteLength":576,
			"byteOffset":8036556,
			"target":34963
		}
	],
	"samplers":[
		{
			"magFilter":9729,
			"minFilter":9987
		}
	],
	"buffers":[
		{
			"byteLength":8037132,
			"uri":"pasillo.bin"
		}
	]
}
