{
	"asset":{
		"generator":"Khronos glTF Blender I/O v4.3.47",
		"version":"2.0"
	},
	"scene":0,
	"scenes":[
		{
			"name":"Scene",
			"nodes":[
				0,
				1,
				2,
				3,
				4,
				5,
				6,
				7,
				8
			]
		}
	],
	"nodes":[
		{
			"mesh":0,
			"name":"Cylinder",
			"scale":[
				0.08964330703020096,
				0.45740699768066406,
				0.08964330703020096
			],
			"translation":[
				0.4040369987487793,
				0.3207229971885681,
				-0.03741946443915367
			]
		},
		{
			"mesh":1,
			"name":"Cylinder.002",
			"rotation":[
				0,
				0.7071068286895752,
				0,
				0.7071067690849304
			],
			"scale":[
				0.08964330703020096,
				0.45740699768066406,
				0.08964330703020096
			],
			"translation":[
				-0.04082751274108887,
				0.3207229971885681,
				-0.4598464369773865
			]
		},
		{
			"mesh":2,
			"name":"Cylinder.003",
			"rotation":[
				0,
				-1,
				0,
				1.6292068494294654e-07
			],
			"scale":[
				0.08964330703020096,
				0.45740699768066406,
				0.08964330703020096
			],
			"translation":[
				-0.45925211906433105,
				0.3207229971885681,
				-0.04255682975053787
			]
		},
		{
			"mesh":3,
			"name":"Cylinder.005",
			"rotation":[
				0,
				-0.7071068286895752,
				0,
				0.7071067690849304
			],
			"scale":[
				0.08964330703020096,
				0.45740699768066406,
				0.08964330703020096
			],
			"translation":[
				-0.02920520305633545,
				0.3207229971885681,
				0.3951520025730133
			]
		},
		{
			"mesh":4,
			"name":"Cylinder.006",
			"scale":[
				0.08875234425067902,
				2.033313751220703,
				0.08875234425067902
			],
			"translation":[
				-0.03869926929473877,
				2.7473385334014893,
				-0.03741946443915367
			]
		},
		{
			"mesh":5,
			"name":"Cylinder.001",
			"rotation":[
				-0.3826834261417389,
				0,
				0.9238795638084412,
				1.5358588711933407e-07
			],
			"scale":[
				0.05236572027206421,
				0.2671973407268524,
				0.05236572027206421
			],
			"translation":[
				-0.26810193061828613,
				2.795515537261963,
				-0.20662353932857513
			]
		},
		{
			"mesh":6,
			"name":"Cylinder.004",
			"rotation":[
				-0.3826834261417389,
				0,
				0.9238795638084412,
				1.0796646421340483e-07
			],
			"scale":[
				0.04762692004442215,
				0.24301740527153015,
				0.04762692004442215
			],
			"translation":[
				-0.20858025550842285,
				4.214645862579346,
				-0.22718723118305206
			]
		},
		{
			"mesh":7,
			"name":"Cylinder.007",
			"rotation":[
				-0.7071068286895752,
				0,
				-0.7071068286895752,
				2.837897454810445e-07
			],
			"scale":[
				0.052365731447935104,
				0.2671973407268524,
				0.052365731447935104
			],
			"translation":[
				-0.04256582260131836,
				2.4618752002716064,
				0.2549797296524048
			]
		},
		{
			"mesh":8,
			"name":"Cylinder.008",
			"rotation":[
				-0.9238795638084412,
				0,
				0.3826834261417389,
				3.707891664816998e-07
			],
			"scale":[
				0.04762691631913185,
				0.24301740527153015,
				0.04762691631913185
			],
			"translation":[
				0.16764235496520996,
				3.621244192123413,
				-0.2269597053527832
			]
		}
	],
	"materials":[
		{
			"doubleSided":true,
			"name":"Material.001",
			"pbrMetallicRoughness":{
				"baseColorFactor":[
					0.23813486099243164,
					0.08424273133277893,
					0.043556686490774155,
					1
				],
				"metallicFactor":0,
				"roughnessFactor":0.5
			}
		}
	],
	"meshes":[
		{
			"name":"Cylinder",
			"primitives":[
				{
					"attributes":{
						"POSITION":0,
						"NORMAL":1,
						"TEXCOORD_0":2
					},
					"indices":3,
					"material":0
				}
			]
		},
		{
			"name":"Cylinder.002",
			"primitives":[
				{
					"attributes":{
						"POSITION":4,
						"NORMAL":5,
						"TEXCOORD_0":6
					},
					"indices":3,
					"material":0
				}
			]
		},
		{
			"name":"Cylinder.003",
			"primitives":[
				{
					"attributes":{
						"POSITION":7,
						"NORMAL":8,
						"TEXCOORD_0":9
					},
					"indices":3,
					"material":0
				}
			]
		},
		{
			"name":"Cylinder.005",
			"primitives":[
				{
					"attributes":{
						"POSITION":10,
						"NORMAL":11,
						"TEXCOORD_0":12
					},
					"indices":3,
					"material":0
				}
			]
		},
		{
			"name":"Cylinder.006",
			"primitives":[
				{
					"attributes":{
						"POSITION":13,
						"NORMAL":14,
						"TEXCOORD_0":15
					},
					"indices":3,
					"material":0
				}
			]
		},
		{
			"name":"Cylinder.007",
			"primitives":[
				{
					"attributes":{
						"POSITION":16,
						"NORMAL":17,
						"TEXCOORD_0":18
					},
					"indices":3,
					"material":0
				}
			]
		},
		{
			"name":"Cylinder.008",
			"primitives":[
				{
					"attributes":{
						"POSITION":19,
						"NORMAL":20,
						"TEXCOORD_0":21
					},
					"indices":3,
					"material":0
				}
			]
		},
		{
			"name":"Cylinder.009",
			"primitives":[
				{
					"attributes":{
						"POSITION":22,
						"NORMAL":23,
						"TEXCOORD_0":24
					},
					"indices":3,
					"material":0
				}
			]
		},
		{
			"name":"Cylinder.010",
			"primitives":[
				{
					"attributes":{
						"POSITION":25,
						"NORMAL":26,
						"TEXCOORD_0":27
					},
					"indices":3,
					"material":0
				}
			]
		}
	],
	"accessors":[
		{
			"bufferView":0,
			"componentType":5126,
			"count":192,
			"max":[
				1,
				1,
				1
			],
			"min":[
				-5.81546688079834,
				-1,
				-1
			],
			"type":"VEC3"
		},
		{
			"bufferView":1,
			"componentType":5126,
			"count":192,
			"type":"VEC3"
		},
		{
			"bufferView":2,
			"componentType":5126,
			"count":192,
			"type":"VEC2"
		},
		{
			"bufferView":3,
			"componentType":5123,
			"count":372,
			"type":"SCALAR"
		},
		{
			"bufferView":4,
			"componentType":5126,
			"count":192,
			"max":[
				1,
				1,
				1
			],
			"min":[
				-5.81546688079834,
				-1,
				-1
			],
			"type":"VEC3"
		},
		{
			"bufferView":5,
			"componentType":5126,
			"count":192,
			"type":"VEC3"
		},
		{
			"bufferView":6,
			"componentType":5126,
			"count":192,
			"type":"VEC2"
		},
		{
			"bufferView":7,
			"componentType":5126,
			"count":192,
			"max":[
				1,
				1,
				1
			],
			"min":[
				-5.81546688079834,
				-1,
				-1
			],
			"type":"VEC3"
		},
		{
			"bufferView":8,
			"componentType":5126,
			"count":192,
			"type":"VEC3"
		},
		{
			"bufferView":9,
			"componentType":5126,
			"count":192,
			"type":"VEC2"
		},
		{
			"bufferView":10,
			"componentType":5126,
			"count":192,
			"max":[
				1,
				1,
				1
			],
			"min":[
				-5.81546688079834,
				-1,
				-1
			],
			"type":"VEC3"
		},
		{
			"bufferView":11,
			"componentType":5126,
			"count":192,
			"type":"VEC3"
		},
		{
			"bufferView":12,
			"componentType":5126,
			"count":192,
			"type":"VEC2"
		},
		{
			"bufferView":13,
			"componentType":5126,
			"count":192,
			"max":[
				1,
				1,
				1
			],
			"min":[
				-1,
				-1,
				-1
			],
			"type":"VEC3"
		},
		{
			"bufferView":14,
			"componentType":5126,
			"count":192,
			"type":"VEC3"
		},
		{
			"bufferView":15,
			"componentType":5126,
			"count":192,
			"type":"VEC2"
		},
		{
			"bufferView":16,
			"componentType":5126,
			"count":192,
			"max":[
				1,
				1,
				1
			],
			"min":[
				-5.81546688079834,
				-1,
				-1
			],
			"type":"VEC3"
		},
		{
			"bufferView":17,
			"componentType":5126,
			"count":192,
			"type":"VEC3"
		},
		{
			"bufferView":18,
			"componentType":5126,
			"count":192,
			"type":"VEC2"
		},
		{
			"bufferView":19,
			"componentType":5126,
			"count":192,
			"max":[
				1,
				1,
				1
			],
			"min":[
				-5.81546688079834,
				-1,
				-1
			],
			"type":"VEC3"
		},
		{
			"bufferView":20,
			"componentType":5126,
			"count":192,
			"type":"VEC3"
		},
		{
			"bufferView":21,
			"componentType":5126,
			"count":192,
			"type":"VEC2"
		},
		{
			"bufferView":22,
			"componentType":5126,
			"count":192,
			"max":[
				1,
				1,
				1
			],
			"min":[
				-5.81546688079834,
				-1,
				-1
			],
			"type":"VEC3"
		},
		{
			"bufferView":23,
			"componentType":5126,
			"count":192,
			"type":"VEC3"
		},
		{
			"bufferView":24,
			"componentType":5126,
			"count":192,
			"type":"VEC2"
		},
		{
			"bufferView":25,
			"componentType":5126,
			"count":192,
			"max":[
				1,
				1,
				1
			],
			"min":[
				-5.81546688079834,
				-1,
				-1
			],
			"type":"VEC3"
		},
		{
			"bufferView":26,
			"componentType":5126,
			"count":192,
			"type":"VEC3"
		},
		{
			"bufferView":27,
			"componentType":5126,
			"count":192,
			"type":"VEC2"
		}
	],
	"bufferViews":[
		{
			"buffer":0,
			"byteLength":2304,
			"byteOffset":0,
			"target":34962
		},
		{
			"buffer":0,
			"byteLength":2304,
			"byteOffset":2304,
			"target":34962
		},
		{
			"buffer":0,
			"byteLength":1536,
			"byteOffset":4608,
			"target":34962
		},
		{
			"buffer":0,
			"byteLength":744,
			"byteOffset":6144,
			"target":34963
		},
		{
			"buffer":0,
			"byteLength":2304,
			"byteOffset":6888,
			"target":34962
		},
		{
			"buffer":0,
			"byteLength":2304,
			"byteOffset":9192,
			"target":34962
		},
		{
			"buffer":0,
			"byteLength":1536,
			"byteOffset":11496,
			"target":34962
		},
		{
			"buffer":0,
			"byteLength":2304,
			"byteOffset":13032,
			"target":34962
		},
		{
			"buffer":0,
			"byteLength":2304,
			"byteOffset":15336,
			"target":34962
		},
		{
			"buffer":0,
			"byteLength":1536,
			"byteOffset":17640,
			"target":34962
		},
		{
			"buffer":0,
			"byteLength":2304,
			"byteOffset":19176,
			"target":34962
		},
		{
			"buffer":0,
			"byteLength":2304,
			"byteOffset":21480,
			"target":34962
		},
		{
			"buffer":0,
			"byteLength":1536,
			"byteOffset":23784,
			"target":34962
		},
		{
			"buffer":0,
			"byteLength":2304,
			"byteOffset":25320,
			"target":34962
		},
		{
			"buffer":0,
			"byteLength":2304,
			"byteOffset":27624,
			"target":34962
		},
		{
			"buffer":0,
			"byteLength":1536,
			"byteOffset":29928,
			"target":34962
		},
		{
			"buffer":0,
			"byteLength":2304,
			"byteOffset":31464,
			"target":34962
		},
		{
			"buffer":0,
			"byteLength":2304,
			"byteOffset":33768,
			"target":34962
		},
		{
			"buffer":0,
			"byteLength":1536,
			"byteOffset":36072,
			"target":34962
		},
		{
			"buffer":0,
			"byteLength":2304,
			"byteOffset":37608,
			"target":34962
		},
		{
			"buffer":0,
			"byteLength":2304,
			"byteOffset":39912,
			"target":34962
		},
		{
			"buffer":0,
			"byteLength":1536,
			"byteOffset":42216,
			"target":34962
		},
		{
			"buffer":0,
			"byteLength":2304,
			"byteOffset":43752,
			"target":34962
		},
		{
			"buffer":0,
			"byteLength":2304,
			"byteOffset":46056,
			"target":34962
		},
		{
			"buffer":0,
			"byteLength":1536,
			"byteOffset":48360,
			"target":34962
		},
		{
			"buffer":0,
			"byteLength":2304,
			"byteOffset":49896,
			"target":34962
		},
		{
			"buffer":0,
			"byteLength":2304,
			"byteOffset":52200,
			"target":34962
		},
		{
			"buffer":0,
			"byteLength":1536,
			"byteOffset":54504,
			"target":34962
		}
	],
	"buffers":[
		{
			"byteLength":56040,
			"uri":"perchero.bin"
		}
	]
}
