{
	"asset":{
		"generator":"Khronos glTF Blender I/O v4.3.47",
		"version":"2.0"
	},
	"scene":0,
	"scenes":[
		{
			"name":"Scene",
			"nodes":[
				0
			]
		}
	],
	"nodes":[
		{
			"mesh":0,
			"name":"Cube",
			"scale":[
				3.856156826019287,
				4.575411319732666,
				1
			],
			"translation":[
				0,
				4.488547325134277,
				0
			]
		}
	],
	"materials":[
		{
			"doubleSided":true,
			"name":"Material",
			"pbrMetallicRoughness":{
				"baseColorFactor":[
					0.18000131845474243,
					0.057560697197914124,
					0.007144608069211245,
					1
				],
				"metallicFactor":0,
				"roughnessFactor":0.5
			}
		},
		{
			"doubleSided":true,
			"name":"Material.001",
			"pbrMetallicRoughness":{
				"baseColorFactor":[
					0.05480914190411568,
					0.014594627544283867,
					0.007016665302217007,
					1
				],
				"metallicFactor":0,
				"roughnessFactor":0.5
			}
		},
		{
			"doubleSided":true,
			"name":"Material.002",
			"pbrMetallicRoughness":{
				"baseColorFactor":[
					0.8007017374038696,
					0.5360981822013855,
					0.002728573279455304,
					1
				],
				"metallicFactor":0,
				"roughnessFactor":0.5
			}
		}
	],
	"meshes":[
		{
			"name":"Cube",
			"primitives":[
				{
					"attributes":{
						"POSITION":0,
						"NORMAL":1,
						"TEXCOORD_0":2
					},
					"indices":3,
					"material":0
				},
				{
					"attributes":{
						"POSITION":4,
						"NORMAL":5,
						"TEXCOORD_0":6
					},
					"indices":7,
					"material":1
				},
				{
					"attributes":{
						"POSITION":8,
						"NORMAL":9,
						"TEXCOORD_0":10
					},
					"indices":11,
					"material":2
				}
			]
		}
	],
	"accessors":[
		{
			"bufferView":0,
			"componentType":5126,
			"count":1018,
			"max":[
				1,
				1,
				1.134780764579773
			],
			"min":[
				-1,
				-1,
				-1
			],
			"type":"VEC3"
		},
		{
			"bufferView":1,
			"componentType":5126,
			"count":1018,
			"type":"VEC3"
		},
		{
			"bufferView":2,
			"componentType":5126,
			"count":1018,
			"type":"VEC2"
		},
		{
			"bufferView":3,
			"componentType":5123,
			"count":3552,
			"type":"SCALAR"
		},
		{
			"bufferView":4,
			"componentType":5126,
			"count":124,
			"max":[
				0.875,
				0.7142857313156128,
				0.8874078989028931
			],
			"min":[
				-0.875,
				-0.8571428656578064,
				0.8622305393218994
			],
			"type":"VEC3"
		},
		{
			"bufferView":5,
			"componentType":5126,
			"count":124,
			"type":"VEC3"
		},
		{
			"bufferView":6,
			"componentType":5126,
			"count":124,
			"type":"VEC2"
		},
		{
			"bufferView":7,
			"componentType":5123,
			"count":372,
			"type":"SCALAR"
		},
		{
			"bufferView":8,
			"componentType":5126,
			"count":290,
			"max":[
				0.5145705938339233,
				0.005642034113407135,
				1.134780764579773
			],
			"min":[
				-0.3895706236362457,
				-0.14849916100502014,
				1
			],
			"type":"VEC3"
		},
		{
			"bufferView":9,
			"componentType":5126,
			"count":290,
			"type":"VEC3"
		},
		{
			"bufferView":10,
			"componentType":5126,
			"count":290,
			"type":"VEC2"
		},
		{
			"bufferView":11,
			"componentType":5123,
			"count":1182,
			"type":"SCALAR"
		}
	],
	"bufferViews":[
		{
			"buffer":0,
			"byteLength":12216,
			"byteOffset":0,
			"target":34962
		},
		{
			"buffer":0,
			"byteLength":12216,
			"byteOffset":12216,
			"target":34962
		},
		{
			"buffer":0,
			"byteLength":8144,
			"byteOffset":24432,
			"target":34962
		},
		{
			"buffer":0,
			"byteLength":7104,
			"byteOffset":32576,
			"target":34963
		},
		{
			"buffer":0,
			"byteLength":1488,
			"byteOffset":39680,
			"target":34962
		},
		{
			"buffer":0,
			"byteLength":1488,
			"byteOffset":41168,
			"target":34962
		},
		{
			"buffer":0,
			"byteLength":992,
			"byteOffset":42656,
			"target":34962
		},
		{
			"buffer":0,
			"byteLength":744,
			"byteOffset":43648,
			"target":34963
		},
		{
			"buffer":0,
			"byteLength":3480,
			"byteOffset":44392,
			"target":34962
		},
		{
			"buffer":0,
			"byteLength":3480,
			"byteOffset":47872,
			"target":34962
		},
		{
			"buffer":0,
			"byteLength":2320,
			"byteOffset":51352,
			"target":34962
		},
		{
			"buffer":0,
			"byteLength":2364,
			"byteOffset":53672,
			"target":34963
		}
	],
	"buffers":[
		{
			"byteLength":56036,
			"uri":"ropero.bin"
		}
	]
}
