{
	"asset":{
		"generator":"Khronos glTF Blender I/O v4.3.47",
		"version":"2.0"
	},
	"scene":0,
	"scenes":[
		{
			"name":"Scene",
			"nodes":[
				0,
				1,
				2,
				3,
				4,
				5
			]
		}
	],
	"nodes":[
		{
			"mesh":0,
			"name":"Cube",
			"rotation":[
				0,
				0.7071068286895752,
				0,
				0.7071068286895752
			],
			"scale":[
				0.7804729342460632,
				0.03362517058849335,
				1.0365527868270874
			],
			"translation":[
				0,
				1.5786436796188354,
				-3.1411430835723877
			]
		},
		{
			"mesh":1,
			"name":"Cube.001",
			"scale":[
				3.795757293701172,
				1,
				1
			],
			"translation":[
				0,
				0.5855883955955505,
				0
			]
		},
		{
			"mesh":2,
			"name":"Circle",
			"translation":[
				0,
				0,
				-7.982554912567139
			]
		},
		{
			"mesh":3,
			"name":"Circle.001",
			"scale":[
				0.02463219128549099,
				0.02463219128549099,
				0.02463219128549099
			],
			"translation":[
				-0.0058062076568603516,
				2.3075168132781982,
				-3.1521003246307373
			]
		},
		{
			"mesh":4,
			"name":"Circle.002",
			"rotation":[
				-0.03703282028436661,
				-0.08852584660053253,
				-0.2896273136138916,
				0.9523170590400696
			],
			"scale":[
				0.3376706540584564,
				0.3376706540584564,
				0.33767062425613403
			],
			"translation":[
				-0.2916282117366791,
				0.8537884950637817,
				-0.9847962856292725
			]
		},
		{
			"mesh":5,
			"name":"Circle.003",
			"rotation":[
				-0.1477314829826355,
				-0.10995911061763763,
				-0.14942559599876404,
				0.9714712500572205
			],
			"translation":[
				-3.2669522762298584,
				-2.1647462844848633,
				-7.237173080444336
			]
		}
	],
	"materials":[
		{
			"doubleSided":true,
			"name":"Material",
			"pbrMetallicRoughness":{
				"baseColorFactor":[
					0.548123300075531,
					0.19029414653778076,
					0.058189667761325836,
					1
				],
				"metallicFactor":0,
				"roughnessFactor":0.5
			}
		},
		{
			"doubleSided":true,
			"name":"Material.001",
			"pbrMetallicRoughness":{
				"baseColorFactor":[
					0.23183384537696838,
					0.03859734535217285,
					0.03308745473623276,
					1
				],
				"metallicFactor":0,
				"roughnessFactor":0.5
			}
		},
		{
			"doubleSided":true,
			"name":"Material.002",
			"pbrMetallicRoughness":{
				"baseColorFactor":[
					0.8001565933227539,
					0.2948444187641144,
					0.49624666571617126,
					1
				],
				"metallicFactor":0,
				"roughnessFactor":0.5
			}
		},
		{
			"doubleSided":true,
			"name":"Material.004",
			"pbrMetallicRoughness":{
				"baseColorFactor":[
					0.3998287320137024,
					0.8001260757446289,
					0.5167440176010132,
					1
				],
				"metallicFactor":0,
				"roughnessFactor":0.5
			}
		},
		{
			"doubleSided":true,
			"name":"Material.003",
			"pbrMetallicRoughness":{
				"baseColorFactor":[
					0.5491220951080322,
					0.32743656635284424,
					0.8002194166183472,
					1
				],
				"metallicFactor":0,
				"roughnessFactor":0.5
			}
		},
		{
			"doubleSided":true,
			"name":"Material.005",
			"pbrMetallicRoughness":{
				"baseColorFactor":[
					1,
					0.9800362586975098,
					0,
					1
				],
				"metallicFactor":0,
				"roughnessFactor":0.5
			}
		}
	],
	"meshes":[
		{
			"name":"Cube",
			"primitives":[
				{
					"attributes":{
						"POSITION":0,
						"NORMAL":1,
						"TEXCOORD_0":2
					},
					"indices":3,
					"material":0
				}
			]
		},
		{
			"name":"Cube.001",
			"primitives":[
				{
					"attributes":{
						"POSITION":4,
						"NORMAL":5,
						"TEXCOORD_0":6
					},
					"indices":7,
					"material":1
				}
			]
		},
		{
			"name":"Circle",
			"primitives":[
				{
					"attributes":{
						"POSITION":8,
						"NORMAL":9,
						"TEXCOORD_0":10
					},
					"indices":11,
					"material":2
				}
			]
		},
		{
			"name":"Circle.001",
			"primitives":[
				{
					"attributes":{
						"POSITION":12,
						"NORMAL":13,
						"TEXCOORD_0":14
					},
					"indices":15,
					"material":3
				}
			]
		},
		{
			"name":"Circle.002",
			"primitives":[
				{
					"attributes":{
						"POSITION":16,
						"NORMAL":17,
						"TEXCOORD_0":18
					},
					"indices":19,
					"material":4
				}
			]
		},
		{
			"name":"Circle.003",
			"primitives":[
				{
					"attributes":{
						"POSITION":20,
						"NORMAL":21,
						"TEXCOORD_0":22
					},
					"indices":23,
					"material":5
				}
			]
		}
	],
	"accessors":[
		{
			"bufferView":0,
			"componentType":5126,
			"count":421,
			"max":[
				1.2153373956680298,
				1,
				1.4004944562911987
			],
			"min":[
				-1.2153373956680298,
				-46.860076904296875,
				-1.3901089429855347
			],
			"type":"VEC3"
		},
		{
			"bufferView":1,
			"componentType":5126,
			"count":421,
			"type":"VEC3"
		},
		{
			"bufferView":2,
			"componentType":5126,
			"count":421,
			"type":"VEC2"
		},
		{
			"bufferView":3,
			"componentType":5123,
			"count":2544,
			"type":"SCALAR"
		},
		{
			"bufferView":4,
			"componentType":5126,
			"count":402,
			"max":[
				1,
				3.011981964111328,
				3.087920665740967
			],
			"min":[
				-1,
				-0.5246293544769287,
				-1.0011578798294067
			],
			"type":"VEC3"
		},
		{
			"bufferView":5,
			"componentType":5126,
			"count":402,
			"type":"VEC3"
		},
		{
			"bufferView":6,
			"componentType":5126,
			"count":402,
			"type":"VEC2"
		},
		{
			"bufferView":7,
			"componentType":5123,
			"count":2148,
			"type":"SCALAR"
		},
		{
			"bufferView":8,
			"componentType":5126,
			"count":385,
			"max":[
				0.2129002809524536,
				2.4778497219085693,
				5.089347839355469
			],
			"min":[
				-0.2129002809524536,
				1.627089262008667,
				4.663547515869141
			],
			"type":"VEC3"
		},
		{
			"bufferView":9,
			"componentType":5126,
			"count":385,
			"type":"VEC3"
		},
		{
			"bufferView":10,
			"componentType":5126,
			"count":385,
			"type":"VEC2"
		},
		{
			"bufferView":11,
			"componentType":5123,
			"count":2208,
			"type":"SCALAR"
		},
		{
			"bufferView":12,
			"componentType":5126,
			"count":289,
			"max":[
				1,
				12.85769271850586,
				2.7223153114318848
			],
			"min":[
				-1.0659337043762207,
				0,
				-1
			],
			"type":"VEC3"
		},
		{
			"bufferView":13,
			"componentType":5126,
			"count":289,
			"type":"VEC3"
		},
		{
			"bufferView":14,
			"componentType":5126,
			"count":289,
			"type":"VEC2"
		},
		{
			"bufferView":15,
			"componentType":5123,
			"count":1722,
			"type":"SCALAR"
		},
		{
			"bufferView":16,
			"componentType":5126,
			"count":140,
			"max":[
				-2.3885016441345215,
				5.155032634735107,
				-4.959776878356934
			],
			"min":[
				-4.316910743713379,
				4.8909735679626465,
				-6.437406539916992
			],
			"type":"VEC3"
		},
		{
			"bufferView":17,
			"componentType":5126,
			"count":140,
			"type":"VEC3"
		},
		{
			"bufferView":18,
			"componentType":5126,
			"count":140,
			"type":"VEC2"
		},
		{
			"bufferView":19,
			"componentType":5123,
			"count":744,
			"type":"SCALAR"
		},
		{
			"bufferView":20,
			"componentType":5126,
			"count":98,
			"max":[
				2.985290765762329,
				4.391162395477295,
				4.914435386657715
			],
			"min":[
				2.8021934032440186,
				4.380997180938721,
				4.731337547302246
			],
			"type":"VEC3"
		},
		{
			"bufferView":21,
			"componentType":5126,
			"count":98,
			"type":"VEC3"
		},
		{
			"bufferView":22,
			"componentType":5126,
			"count":98,
			"type":"VEC2"
		},
		{
			"bufferView":23,
			"componentType":5123,
			"count":192,
			"type":"SCALAR"
		}
	],
	"bufferViews":[
		{
			"buffer":0,
			"byteLength":5052,
			"byteOffset":0,
			"target":34962
		},
		{
			"buffer":0,
			"byteLength":5052,
			"byteOffset":5052,
			"target":34962
		},
		{
			"buffer":0,
			"byteLength":3368,
			"byteOffset":10104,
			"target":34962
		},
		{
			"buffer":0,
			"byteLength":5088,
			"byteOffset":13472,
			"target":34963
		},
		{
			"buffer":0,
			"byteLength":4824,
			"byteOffset":18560,
			"target":34962
		},
		{
			"buffer":0,
			"byteLength":4824,
			"byteOffset":23384,
			"target":34962
		},
		{
			"buffer":0,
			"byteLength":3216,
			"byteOffset":28208,
			"target":34962
		},
		{
			"buffer":0,
			"byteLength":4296,
			"byteOffset":31424,
			"target":34963
		},
		{
			"buffer":0,
			"byteLength":4620,
			"byteOffset":35720,
			"target":34962
		},
		{
			"buffer":0,
			"byteLength":4620,
			"byteOffset":40340,
			"target":34962
		},
		{
			"buffer":0,
			"byteLength":3080,
			"byteOffset":44960,
			"target":34962
		},
		{
			"buffer":0,
			"byteLength":4416,
			"byteOffset":48040,
			"target":34963
		},
		{
			"buffer":0,
			"byteLength":3468,
			"byteOffset":52456,
			"target":34962
		},
		{
			"buffer":0,
			"byteLength":3468,
			"byteOffset":55924,
			"target":34962
		},
		{
			"buffer":0,
			"byteLength":2312,
			"byteOffset":59392,
			"target":34962
		},
		{
			"buffer":0,
			"byteLength":3444,
			"byteOffset":61704,
			"target":34963
		},
		{
			"buffer":0,
			"byteLength":1680,
			"byteOffset":65148,
			"target":34962
		},
		{
			"buffer":0,
			"byteLength":1680,
			"byteOffset":66828,
			"target":34962
		},
		{
			"buffer":0,
			"byteLength":1120,
			"byteOffset":68508,
			"target":34962
		},
		{
			"buffer":0,
			"byteLength":1488,
			"byteOffset":69628,
			"target":34963
		},
		{
			"buffer":0,
			"byteLength":1176,
			"byteOffset":71116,
			"target":34962
		},
		{
			"buffer":0,
			"byteLength":1176,
			"byteOffset":72292,
			"target":34962
		},
		{
			"buffer":0,
			"byteLength":784,
			"byteOffset":73468,
			"target":34962
		},
		{
			"buffer":0,
			"byteLength":384,
			"byteOffset":74252,
			"target":34963
		}
	],
	"buffers":[
		{
			"byteLength":74636,
			"uri":"comedor.bin"
		}
	]
}
