{
	"asset":{
		"generator":"Khronos glTF Blender I/O v4.3.47",
		"version":"2.0"
	},
	"scene":0,
	"scenes":[
		{
			"name":"Scene",
			"nodes":[
				0,
				1,
				2,
				3,
				4,
				5,
				6
			]
		}
	],
	"nodes":[
		{
			"name":"Empty",
			"rotation":[
				0,
				-1,
				0,
				4.371138828673793e-08
			],
			"translation":[
				0,
				0,
				-9.593741416931152
			]
		},
		{
			"name":"Empty.001",
			"rotation":[
				0,
				-1,
				0,
				4.371138828673793e-08
			],
			"translation":[
				0,
				0,
				-9.593741416931152
			]
		},
		{
			"name":"Empty.002",
			"rotation":[
				0,
				-1,
				0,
				4.371138828673793e-08
			],
			"translation":[
				0,
				0,
				-9.593741416931152
			]
		},
		{
			"mesh":0,
			"name":"Cone.002",
			"rotation":[
				0.8102206587791443,
				-0.16118209064006805,
				-0.158458411693573,
				0.5407899618148804
			],
			"scale":[
				0.01403063628822565,
				0.014030640944838524,
				0.014030640944838524
			],
			"translation":[
				0.07027284801006317,
				2.783884048461914,
				-6.37023401260376
			]
		},
		{
			"mesh":1,
			"name":"Cube",
			"scale":[
				4.991526126861572,
				1,
				2.979644298553467
			],
			"translation":[
				0,
				0.7282928228378296,
				0
			]
		},
		{
			"mesh":2,
			"name":"Plane",
			"scale":[
				1.8434548377990723,
				1,
				1
			],
			"translation":[
				0,
				0,
				-5.330488681793213
			]
		},
		{
			"mesh":3,
			"name":"Circle",
			"translation":[
				0,
				1.8952418565750122,
				-6.369761943817139
			]
		}
	],
	"materials":[
		{
			"doubleSided":true,
			"name":"Material.008",
			"pbrMetallicRoughness":{
				"baseColorFactor":[
					0.009256481193006039,
					0.0033616821747273207,
					0.005383897572755814,
					1
				],
				"metallicFactor":0,
				"roughnessFactor":0.5
			}
		},
		{
			"doubleSided":true,
			"name":"Material.006",
			"pbrMetallicRoughness":{
				"baseColorTexture":{
					"index":0
				},
				"metallicRoughnessTexture":{
					"index":1
				},
				"roughnessFactor":0.5
			}
		},
		{
			"alphaMode":"BLEND",
			"doubleSided":true,
			"name":"Material.007",
			"pbrMetallicRoughness":{
				"baseColorTexture":{
					"index":2
				},
				"metallicFactor":0,
				"roughnessFactor":0.5
			}
		},
		{
			"alphaMode":"BLEND",
			"doubleSided":true,
			"name":"Material.009",
			"pbrMetallicRoughness":{
				"baseColorTexture":{
					"index":3
				},
				"metallicFactor":0,
				"roughnessFactor":0.5
			}
		},
		{
			"doubleSided":true,
			"name":"Material.010",
			"pbrMetallicRoughness":{
				"baseColorFactor":[
					0.24450144171714783,
					0.016676941886544228,
					0.03149387240409851,
					1
				],
				"metallicFactor":0,
				"roughnessFactor":0.5
			}
		},
		{
			"doubleSided":true,
			"name":"Material.002",
			"pbrMetallicRoughness":{
				"baseColorFactor":[
					0.09850163757801056,
					0.04312179610133171,
					0.013236735947430134,
					1
				],
				"metallicFactor":0,
				"roughnessFactor":0.5
			}
		},
		{
			"doubleSided":true,
			"name":"Material.013",
			"pbrMetallicRoughness":{
				"baseColorFactor":[
					0.007277443073689938,
					0.009958220645785332,
					0.1409904807806015,
					1
				],
				"metallicFactor":0,
				"roughnessFactor":0.5
			}
		},
		{
			"doubleSided":true,
			"name":"Material.014",
			"pbrMetallicRoughness":{
				"baseColorFactor":[
					0.8992688059806824,
					0.9052778482437134,
					1,
					1
				],
				"metallicFactor":0,
				"roughnessFactor":0.5
			}
		}
	],
	"meshes":[
		{
			"name":"Cone.002",
			"primitives":[
				{
					"attributes":{
						"POSITION":0,
						"NORMAL":1,
						"TEXCOORD_0":2
					},
					"indices":3,
					"material":0
				},
				{
					"attributes":{
						"POSITION":4,
						"NORMAL":5,
						"TEXCOORD_0":6
					},
					"indices":7,
					"material":1
				},
				{
					"attributes":{
						"POSITION":8,
						"NORMAL":9,
						"TEXCOORD_0":10
					},
					"indices":11,
					"material":2
				},
				{
					"attributes":{
						"POSITION":12,
						"NORMAL":13,
						"TEXCOORD_0":14
					},
					"indices":15,
					"material":3
				}
			]
		},
		{
			"name":"Cube.006",
			"primitives":[
				{
					"attributes":{
						"POSITION":16,
						"NORMAL":17,
						"TEXCOORD_0":18
					},
					"indices":19,
					"material":4
				}
			]
		},
		{
			"name":"Plane",
			"primitives":[
				{
					"attributes":{
						"POSITION":20,
						"NORMAL":21,
						"TEXCOORD_0":22
					},
					"indices":23,
					"material":5
				}
			]
		},
		{
			"name":"Circle",
			"primitives":[
				{
					"attributes":{
						"POSITION":24,
						"NORMAL":25,
						"TEXCOORD_0":26
					},
					"indices":27,
					"material":6
				},
				{
					"attributes":{
						"POSITION":28,
						"NORMAL":29,
						"TEXCOORD_0":30
					},
					"indices":31,
					"material":7
				}
			]
		}
	],
	"textures":[
		{
			"sampler":0,
			"source":0
		},
		{
			"sampler":0,
			"source":1
		},
		{
			"sampler":0,
			"source":2
		},
		{
			"sampler":0,
			"source":3
		}
	],
	"images":[
		{
			"mimeType":"image/png",
			"name":"petalo4-Photoroom (1)",
			"uri":"petalo4-Photoroom%201.png"
		},
		{
			"mimeType":"image/png",
			"name":"petalo4-Photoroom (1)",
			"uri":"petalo4-Photoroom%201-1.png"
		},
		{
			"mimeType":"image/png",
			"name":"petalo4-Photoroom",
			"uri":"petalo4-Photoroom.png"
		},
		{
			"mimeType":"image/png",
			"name":"hoja1-Photoroom",
			"uri":"hoja1-Photoroom.png"
		}
	],
	"accessors":[
		{
			"bufferView":0,
			"componentType":5126,
			"count":1858,
			"max":[
				7.512506484985352,
				4.199782371520996,
				20.647537231445312
			],
			"min":[
				-1.000000238418579,
				-14.902152061462402,
				-49.11372375488281
			],
			"type":"VEC3"
		},
		{
			"bufferView":1,
			"componentType":5126,
			"count":1858,
			"type":"VEC3"
		},
		{
			"bufferView":2,
			"componentType":5126,
			"count":1858,
			"type":"VEC2"
		},
		{
			"bufferView":3,
			"componentType":5123,
			"count":2652,
			"type":"SCALAR"
		},
		{
			"bufferView":4,
			"componentType":5126,
			"count":3405,
			"max":[
				33.54496765136719,
				4.018964767456055,
				-38.598079681396484
			],
			"min":[
				-2.0930018424987793,
				-35.97715377807617,
				-72.07614135742188
			],
			"type":"VEC3"
		},
		{
			"bufferView":5,
			"componentType":5126,
			"count":3405,
			"type":"VEC3"
		},
		{
			"bufferView":6,
			"componentType":5126,
			"count":3405,
			"type":"VEC2"
		},
		{
			"bufferView":7,
			"componentType":5123,
			"count":5376,
			"type":"SCALAR"
		},
		{
			"bufferView":8,
			"componentType":5126,
			"count":3076,
			"max":[
				30.19112205505371,
				-1.2849750518798828,
				-45.042686462402344
			],
			"min":[
				3.7778782844543457,
				-30.00252914428711,
				-70.50157165527344
			],
			"type":"VEC3"
		},
		{
			"bufferView":9,
			"componentType":5126,
			"count":3076,
			"type":"VEC3"
		},
		{
			"bufferView":10,
			"componentType":5126,
			"count":3076,
			"type":"VEC2"
		},
		{
			"bufferView":11,
			"componentType":5123,
			"count":4608,
			"type":"SCALAR"
		},
		{
			"bufferView":12,
			"componentType":5126,
			"count":536,
			"max":[
				9.53184700012207,
				11.613871574401855,
				-7.388769626617432
			],
			"min":[
				-3.9066104888916016,
				-30.293319702148438,
				-23.883756637573242
			],
			"type":"VEC3"
		},
		{
			"bufferView":13,
			"componentType":5126,
			"count":536,
			"type":"VEC3"
		},
		{
			"bufferView":14,
			"componentType":5126,
			"count":536,
			"type":"VEC2"
		},
		{
			"bufferView":15,
			"componentType":5123,
			"count":864,
			"type":"SCALAR"
		},
		{
			"bufferView":16,
			"componentType":5126,
			"count":533,
			"max":[
				1,
				3.4798498153686523,
				1
			],
			"min":[
				-1,
				-0.7050083875656128,
				-1
			],
			"type":"VEC3"
		},
		{
			"bufferView":17,
			"componentType":5126,
			"count":533,
			"type":"VEC3"
		},
		{
			"bufferView":18,
			"componentType":5126,
			"count":533,
			"type":"VEC2"
		},
		{
			"bufferView":19,
			"componentType":5123,
			"count":1266,
			"type":"SCALAR"
		},
		{
			"bufferView":20,
			"componentType":5126,
			"count":368,
			"max":[
				1,
				1.6979371309280396,
				0.35733890533447266
			],
			"min":[
				-1,
				0.010901868343353271,
				-2.1271867752075195
			],
			"type":"VEC3"
		},
		{
			"bufferView":21,
			"componentType":5126,
			"count":368,
			"type":"VEC3"
		},
		{
			"bufferView":22,
			"componentType":5126,
			"count":368,
			"type":"VEC2"
		},
		{
			"bufferView":23,
			"componentType":5123,
			"count":972,
			"type":"SCALAR"
		},
		{
			"bufferView":24,
			"componentType":5126,
			"count":1185,
			"max":[
				0.48074159026145935,
				0.9312121272087097,
				0.4807398319244385
			],
			"min":[
				-0.48074159026145935,
				-0.18446582555770874,
				-0.48074331879615784
			],
			"type":"VEC3"
		},
		{
			"bufferView":25,
			"componentType":5126,
			"count":1185,
			"type":"VEC3"
		},
		{
			"bufferView":26,
			"componentType":5126,
			"count":1185,
			"type":"VEC2"
		},
		{
			"bufferView":27,
			"componentType":5123,
			"count":1824,
			"type":"SCALAR"
		},
		{
			"bufferView":28,
			"componentType":5126,
			"count":512,
			"max":[
				0.48074159026145935,
				1.002105951309204,
				0.4807398319244385
			],
			"min":[
				-0.48074159026145935,
				0.1632903814315796,
				-0.48074331879615784
			],
			"type":"VEC3"
		},
		{
			"bufferView":29,
			"componentType":5126,
			"count":512,
			"type":"VEC3"
		},
		{
			"bufferView":30,
			"componentType":5126,
			"count":512,
			"type":"VEC2"
		},
		{
			"bufferView":31,
			"componentType":5123,
			"count":768,
			"type":"SCALAR"
		}
	],
	"bufferViews":[
		{
			"buffer":0,
			"byteLength":22296,
			"byteOffset":0,
			"target":34962
		},
		{
			"buffer":0,
			"byteLength":22296,
			"byteOffset":22296,
			"target":34962
		},
		{
			"buffer":0,
			"byteLength":14864,
			"byteOffset":44592,
			"target":34962
		},
		{
			"buffer":0,
			"byteLength":5304,
			"byteOffset":59456,
			"target":34963
		},
		{
			"buffer":0,
			"byteLength":40860,
			"byteOffset":64760,
			"target":34962
		},
		{
			"buffer":0,
			"byteLength":40860,
			"byteOffset":105620,
			"target":34962
		},
		{
			"buffer":0,
			"byteLength":27240,
			"byteOffset":146480,
			"target":34962
		},
		{
			"buffer":0,
			"byteLength":10752,
			"byteOffset":173720,
			"target":34963
		},
		{
			"buffer":0,
			"byteLength":36912,
			"byteOffset":184472,
			"target":34962
		},
		{
			"buffer":0,
			"byteLength":36912,
			"byteOffset":221384,
			"target":34962
		},
		{
			"buffer":0,
			"byteLength":24608,
			"byteOffset":258296,
			"target":34962
		},
		{
			"buffer":0,
			"byteLength":9216,
			"byteOffset":282904,
			"target":34963
		},
		{
			"buffer":0,
			"byteLength":6432,
			"byteOffset":292120,
			"target":34962
		},
		{
			"buffer":0,
			"byteLength":6432,
			"byteOffset":298552,
			"target":34962
		},
		{
			"buffer":0,
			"byteLength":4288,
			"byteOffset":304984,
			"target":34962
		},
		{
			"buffer":0,
			"byteLength":1728,
			"byteOffset":309272,
			"target":34963
		},
		{
			"buffer":0,
			"byteLength":6396,
			"byteOffset":311000,
			"target":34962
		},
		{
			"buffer":0,
			"byteLength":6396,
			"byteOffset":317396,
			"target":34962
		},
		{
			"buffer":0,
			"byteLength":4264,
			"byteOffset":323792,
			"target":34962
		},
		{
			"buffer":0,
			"byteLength":2532,
			"byteOffset":328056,
			"target":34963
		},
		{
			"buffer":0,
			"byteLength":4416,
			"byteOffset":330588,
			"target":34962
		},
		{
			"buffer":0,
			"byteLength":4416,
			"byteOffset":335004,
			"target":34962
		},
		{
			"buffer":0,
			"byteLength":2944,
			"byteOffset":339420,
			"target":34962
		},
		{
			"buffer":0,
			"byteLength":1944,
			"byteOffset":342364,
			"target":34963
		},
		{
			"buffer":0,
			"byteLength":14220,
			"byteOffset":344308,
			"target":34962
		},
		{
			"buffer":0,
			"byteLength":14220,
			"byteOffset":358528,
			"target":34962
		},
		{
			"buffer":0,
			"byteLength":9480,
			"byteOffset":372748,
			"target":34962
		},
		{
			"buffer":0,
			"byteLength":3648,
			"byteOffset":382228,
			"target":34963
		},
		{
			"buffer":0,
			"byteLength":6144,
			"byteOffset":385876,
			"target":34962
		},
		{
			"buffer":0,
			"byteLength":6144,
			"byteOffset":392020,
			"target":34962
		},
		{
			"buffer":0,
			"byteLength":4096,
			"byteOffset":398164,
			"target":34962
		},
		{
			"buffer":0,
			"byteLength":1536,
			"byteOffset":402260,
			"target":34963
		}
	],
	"samplers":[
		{
			"magFilter":9729,
			"minFilter":9987
		}
	],
	"buffers":[
		{
			"byteLength":403796,
			"uri":"sala2.bin"
		}
	]
}
