{
	"asset":{
		"generator":"Khronos glTF Blender I/O v4.2.60",
		"version":"2.0"
	},
	"scene":0,
	"scenes":[
		{
			"name":"Scene",
			"nodes":[
				0,
				1,
				2,
				3,
				4,
				5,
				6,
				7
			]
		}
	],
	"nodes":[
		{
			"mesh":0,
			"name":"Circle",
			"rotation":[
				0.6437118053436279,
				0,
				0,
				0.7652681469917297
			],
			"scale":[
				1.4545484781265259,
				1.4545484781265259,
				1.4545484781265259
			],
			"translation":[
				0,
				4.065067768096924,
				0.6066218614578247
			]
		},
		{
			"mesh":1,
			"name":"Cube",
			"rotation":[
				1,
				0,
				0,
				0
			],
			"scale":[
				-7.59947395324707,
				-1,
				-0.1730966567993164
			],
			"translation":[
				0,
				5.142131805419922,
				0
			]
		},
		{
			"mesh":2,
			"name":"Circle.001",
			"rotation":[
				0.321409672498703,
				0.321409672498703,
				-0.6298378705978394,
				0.6298379898071289
			],
			"scale":[
				0.5974249839782715,
				0.5974249839782715,
				0.5974249839782715
			],
			"translation":[
				-0.04249507188796997,
				4.9676194190979,
				-0.025038599967956543
			]
		},
		{
			"mesh":3,
			"name":"Circle.002",
			"rotation":[
				0.321409672498703,
				0.321409672498703,
				-0.6298378705978394,
				0.6298379898071289
			],
			"scale":[
				0.5974249839782715,
				0.5974249839782715,
				0.5974249839782715
			],
			"translation":[
				6.434680461883545,
				4.9676194190979,
				-0.025038599967956543
			]
		},
		{
			"mesh":4,
			"name":"Circle.003",
			"rotation":[
				0.321409672498703,
				0.321409672498703,
				-0.6298378705978394,
				0.6298379898071289
			],
			"scale":[
				0.5974249839782715,
				0.5974249839782715,
				0.5974249839782715
			],
			"translation":[
				-6.493117332458496,
				4.9676194190979,
				-0.025038599967956543
			]
		},
		{
			"mesh":5,
			"name":"Circle.004",
			"rotation":[
				0.321409672498703,
				0.321409672498703,
				-0.6298378705978394,
				0.6298379898071289
			],
			"scale":[
				0.5974249839782715,
				0.5974249839782715,
				0.5974249839782715
			],
			"translation":[
				-3.4315478801727295,
				4.9676194190979,
				-0.025038599967956543
			]
		},
		{
			"mesh":6,
			"name":"Circle.005",
			"rotation":[
				0.321409672498703,
				0.321409672498703,
				-0.6298378705978394,
				0.6298379898071289
			],
			"scale":[
				0.5974249839782715,
				0.5974249839782715,
				0.5974249839782715
			],
			"translation":[
				3.442023515701294,
				4.9676194190979,
				-0.025038599967956543
			]
		},
		{
			"mesh":7,
			"name":"Circle.006",
			"rotation":[
				0.6437118053436279,
				0,
				0,
				0.7652681469917297
			],
			"scale":[
				1.4545484781265259,
				1.4545484781265259,
				1.4545484781265259
			],
			"translation":[
				-6.16679573059082,
				4.065067768096924,
				0.6066218614578247
			]
		}
	],
	"materials":[
		{
			"doubleSided":true,
			"name":"Material.001",
			"pbrMetallicRoughness":{
				"baseColorFactor":[
					0.0030772315803915262,
					0.0030772315803915262,
					0.0030772315803915262,
					1
				],
				"metallicFactor":0,
				"roughnessFactor":0.5
			}
		},
		{
			"doubleSided":true,
			"name":"Material.002",
			"pbrMetallicRoughness":{
				"baseColorFactor":[
					0.8518955707550049,
					0.14026908576488495,
					0.34075048565864563,
					1
				],
				"metallicFactor":0,
				"roughnessFactor":0.5
			}
		},
		{
			"doubleSided":true,
			"name":"Material.003",
			"pbrMetallicRoughness":{
				"baseColorFactor":[
					0.36267054080963135,
					0.20665282011032104,
					0.052713073790073395,
					1
				],
				"metallicFactor":0,
				"roughnessFactor":0.5
			}
		},
		{
			"doubleSided":true,
			"name":"Material.004",
			"pbrMetallicRoughness":{
				"baseColorFactor":[
					0.04023238271474838,
					0.01652730442583561,
					0.004715502727776766,
					1
				],
				"metallicFactor":0,
				"roughnessFactor":0.5
			}
		},
		{
			"doubleSided":true,
			"name":"Material",
			"pbrMetallicRoughness":{
				"baseColorFactor":[
					0.3212183117866516,
					0.20014511048793793,
					0.04811079055070877,
					1
				],
				"metallicFactor":0,
				"roughnessFactor":0.5
			}
		},
		{
			"doubleSided":true,
			"name":"Material.005",
			"pbrMetallicRoughness":{
				"baseColorFactor":[
					0.10183504223823547,
					0.025388851761817932,
					0.011885590851306915,
					1
				],
				"metallicFactor":0,
				"roughnessFactor":0.5
			}
		},
		{
			"doubleSided":true,
			"name":"Material.006",
			"pbrMetallicRoughness":{
				"baseColorFactor":[
					0.11321862041950226,
					0.3339068293571472,
					0.567863941192627,
					1
				],
				"metallicFactor":0,
				"roughnessFactor":0.5
			}
		}
	],
	"meshes":[
		{
			"name":"Circle.001",
			"primitives":[
				{
					"attributes":{
						"POSITION":0,
						"NORMAL":1,
						"TEXCOORD_0":2
					},
					"indices":3,
					"material":0
				},
				{
					"attributes":{
						"POSITION":4,
						"NORMAL":5,
						"TEXCOORD_0":6
					},
					"indices":7,
					"material":1
				},
				{
					"attributes":{
						"POSITION":8,
						"NORMAL":9,
						"TEXCOORD_0":10
					},
					"indices":11,
					"material":2
				}
			]
		},
		{
			"name":"Cube",
			"primitives":[
				{
					"attributes":{
						"POSITION":12,
						"NORMAL":13,
						"TEXCOORD_0":14
					},
					"indices":15,
					"material":3
				}
			]
		},
		{
			"name":"Circle",
			"primitives":[
				{
					"attributes":{
						"POSITION":16,
						"NORMAL":17,
						"TEXCOORD_0":18
					},
					"indices":19,
					"material":4
				}
			]
		},
		{
			"name":"Circle.002",
			"primitives":[
				{
					"attributes":{
						"POSITION":20,
						"NORMAL":21,
						"TEXCOORD_0":22
					},
					"indices":19,
					"material":4
				}
			]
		},
		{
			"name":"Circle.003",
			"primitives":[
				{
					"attributes":{
						"POSITION":23,
						"NORMAL":24,
						"TEXCOORD_0":25
					},
					"indices":19,
					"material":4
				}
			]
		},
		{
			"name":"Circle.004",
			"primitives":[
				{
					"attributes":{
						"POSITION":26,
						"NORMAL":27,
						"TEXCOORD_0":28
					},
					"indices":19,
					"material":4
				}
			]
		},
		{
			"name":"Circle.005",
			"primitives":[
				{
					"attributes":{
						"POSITION":29,
						"NORMAL":30,
						"TEXCOORD_0":31
					},
					"indices":19,
					"material":4
				}
			]
		},
		{
			"name":"Circle.006",
			"primitives":[
				{
					"attributes":{
						"POSITION":32,
						"NORMAL":33,
						"TEXCOORD_0":34
					},
					"indices":11,
					"material":2
				},
				{
					"attributes":{
						"POSITION":35,
						"NORMAL":36,
						"TEXCOORD_0":37
					},
					"indices":3,
					"material":5
				},
				{
					"attributes":{
						"POSITION":38,
						"NORMAL":39,
						"TEXCOORD_0":40
					},
					"indices":41,
					"material":6
				}
			]
		}
	],
	"accessors":[
		{
			"bufferView":0,
			"componentType":5126,
			"count":256,
			"max":[
				1.3799612522125244,
				0.9253746867179871,
				1.8026374578475952
			],
			"min":[
				-1.5234383344650269,
				-0.03649808093905449,
				-1.7168965339660645
			],
			"type":"VEC3"
		},
		{
			"bufferView":1,
			"componentType":5126,
			"count":256,
			"type":"VEC3"
		},
		{
			"bufferView":2,
			"componentType":5126,
			"count":256,
			"type":"VEC2"
		},
		{
			"bufferView":3,
			"componentType":5123,
			"count":414,
			"type":"SCALAR"
		},
		{
			"bufferView":4,
			"componentType":5126,
			"count":108,
			"max":[
				1,
				0.09041431546211243,
				1
			],
			"min":[
				-1,
				0,
				-1
			],
			"type":"VEC3"
		},
		{
			"bufferView":5,
			"componentType":5126,
			"count":108,
			"type":"VEC3"
		},
		{
			"bufferView":6,
			"componentType":5126,
			"count":108,
			"type":"VEC2"
		},
		{
			"bufferView":7,
			"componentType":5123,
			"count":162,
			"type":"SCALAR"
		},
		{
			"bufferView":8,
			"componentType":5126,
			"count":4,
			"max":[
				0.6234898567199707,
				0.09041431546211243,
				-0.7818314433097839
			],
			"min":[
				0.43388375639915466,
				0,
				-0.9009688496589661
			],
			"type":"VEC3"
		},
		{
			"bufferView":9,
			"componentType":5126,
			"count":4,
			"type":"VEC3"
		},
		{
			"bufferView":10,
			"componentType":5126,
			"count":4,
			"type":"VEC2"
		},
		{
			"bufferView":11,
			"componentType":5123,
			"count":6,
			"type":"SCALAR"
		},
		{
			"bufferView":12,
			"componentType":5126,
			"count":24,
			"max":[
				1,
				1,
				1
			],
			"min":[
				-1,
				-1,
				-1
			],
			"type":"VEC3"
		},
		{
			"bufferView":13,
			"componentType":5126,
			"count":24,
			"type":"VEC3"
		},
		{
			"bufferView":14,
			"componentType":5126,
			"count":24,
			"type":"VEC2"
		},
		{
			"bufferView":15,
			"componentType":5123,
			"count":36,
			"type":"SCALAR"
		},
		{
			"bufferView":16,
			"componentType":5126,
			"count":206,
			"max":[
				0.858893871307373,
				0.13797511160373688,
				0.8809821009635925
			],
			"min":[
				-0.8588937520980835,
				0,
				0.09813810139894485
			],
			"type":"VEC3"
		},
		{
			"bufferView":17,
			"componentType":5126,
			"count":206,
			"type":"VEC3"
		},
		{
			"bufferView":18,
			"componentType":5126,
			"count":206,
			"type":"VEC2"
		},
		{
			"bufferView":19,
			"componentType":5123,
			"count":516,
			"type":"SCALAR"
		},
		{
			"bufferView":20,
			"componentType":5126,
			"count":206,
			"max":[
				0.858893871307373,
				0.13797511160373688,
				0.8809821009635925
			],
			"min":[
				-0.8588937520980835,
				0,
				0.09813810139894485
			],
			"type":"VEC3"
		},
		{
			"bufferView":21,
			"componentType":5126,
			"count":206,
			"type":"VEC3"
		},
		{
			"bufferView":22,
			"componentType":5126,
			"count":206,
			"type":"VEC2"
		},
		{
			"bufferView":23,
			"componentType":5126,
			"count":206,
			"max":[
				0.858893871307373,
				0.13797511160373688,
				0.8809821009635925
			],
			"min":[
				-0.8588937520980835,
				0,
				0.09813810139894485
			],
			"type":"VEC3"
		},
		{
			"bufferView":24,
			"componentType":5126,
			"count":206,
			"type":"VEC3"
		},
		{
			"bufferView":25,
			"componentType":5126,
			"count":206,
			"type":"VEC2"
		},
		{
			"bufferView":26,
			"componentType":5126,
			"count":206,
			"max":[
				0.858893871307373,
				0.13797511160373688,
				0.8809821009635925
			],
			"min":[
				-0.8588937520980835,
				0,
				0.09813810139894485
			],
			"type":"VEC3"
		},
		{
			"bufferView":27,
			"componentType":5126,
			"count":206,
			"type":"VEC3"
		},
		{
			"bufferView":28,
			"componentType":5126,
			"count":206,
			"type":"VEC2"
		},
		{
			"bufferView":29,
			"componentType":5126,
			"count":206,
			"max":[
				0.858893871307373,
				0.13797511160373688,
				0.8809821009635925
			],
			"min":[
				-0.8588937520980835,
				0,
				0.09813810139894485
			],
			"type":"VEC3"
		},
		{
			"bufferView":30,
			"componentType":5126,
			"count":206,
			"type":"VEC3"
		},
		{
			"bufferView":31,
			"componentType":5126,
			"count":206,
			"type":"VEC2"
		},
		{
			"bufferView":32,
			"componentType":5126,
			"count":4,
			"max":[
				-0.43388375639915466,
				0.09034556150436401,
				-0.7818314433097839
			],
			"min":[
				-0.6234898567199707,
				0,
				-0.9009688496589661
			],
			"type":"VEC3"
		},
		{
			"bufferView":33,
			"componentType":5126,
			"count":4,
			"type":"VEC3"
		},
		{
			"bufferView":34,
			"componentType":5126,
			"count":4,
			"type":"VEC2"
		},
		{
			"bufferView":35,
			"componentType":5126,
			"count":256,
			"max":[
				1.3799612522125244,
				0.9253746867179871,
				1.8026374578475952
			],
			"min":[
				-1.5234383344650269,
				-0.03649808093905449,
				-1.7168965339660645
			],
			"type":"VEC3"
		},
		{
			"bufferView":36,
			"componentType":5126,
			"count":256,
			"type":"VEC3"
		},
		{
			"bufferView":37,
			"componentType":5126,
			"count":256,
			"type":"VEC2"
		},
		{
			"bufferView":38,
			"componentType":5126,
			"count":108,
			"max":[
				1,
				0.09041431546211243,
				1
			],
			"min":[
				-1,
				0,
				-1
			],
			"type":"VEC3"
		},
		{
			"bufferView":39,
			"componentType":5126,
			"count":108,
			"type":"VEC3"
		},
		{
			"bufferView":40,
			"componentType":5126,
			"count":108,
			"type":"VEC2"
		},
		{
			"bufferView":41,
			"componentType":5123,
			"count":162,
			"type":"SCALAR"
		}
	],
	"bufferViews":[
		{
			"buffer":0,
			"byteLength":3072,
			"byteOffset":0,
			"target":34962
		},
		{
			"buffer":0,
			"byteLength":3072,
			"byteOffset":3072,
			"target":34962
		},
		{
			"buffer":0,
			"byteLength":2048,
			"byteOffset":6144,
			"target":34962
		},
		{
			"buffer":0,
			"byteLength":828,
			"byteOffset":8192,
			"target":34963
		},
		{
			"buffer":0,
			"byteLength":1296,
			"byteOffset":9020,
			"target":34962
		},
		{
			"buffer":0,
			"byteLength":1296,
			"byteOffset":10316,
			"target":34962
		},
		{
			"buffer":0,
			"byteLength":864,
			"byteOffset":11612,
			"target":34962
		},
		{
			"buffer":0,
			"byteLength":324,
			"byteOffset":12476,
			"target":34963
		},
		{
			"buffer":0,
			"byteLength":48,
			"byteOffset":12800,
			"target":34962
		},
		{
			"buffer":0,
			"byteLength":48,
			"byteOffset":12848,
			"target":34962
		},
		{
			"buffer":0,
			"byteLength":32,
			"byteOffset":12896,
			"target":34962
		},
		{
			"buffer":0,
			"byteLength":12,
			"byteOffset":12928,
			"target":34963
		},
		{
			"buffer":0,
			"byteLength":288,
			"byteOffset":12940,
			"target":34962
		},
		{
			"buffer":0,
			"byteLength":288,
			"byteOffset":13228,
			"target":34962
		},
		{
			"buffer":0,
			"byteLength":192,
			"byteOffset":13516,
			"target":34962
		},
		{
			"buffer":0,
			"byteLength":72,
			"byteOffset":13708,
			"target":34963
		},
		{
			"buffer":0,
			"byteLength":2472,
			"byteOffset":13780,
			"target":34962
		},
		{
			"buffer":0,
			"byteLength":2472,
			"byteOffset":16252,
			"target":34962
		},
		{
			"buffer":0,
			"byteLength":1648,
			"byteOffset":18724,
			"target":34962
		},
		{
			"buffer":0,
			"byteLength":1032,
			"byteOffset":20372,
			"target":34963
		},
		{
			"buffer":0,
			"byteLength":2472,
			"byteOffset":21404,
			"target":34962
		},
		{
			"buffer":0,
			"byteLength":2472,
			"byteOffset":23876,
			"target":34962
		},
		{
			"buffer":0,
			"byteLength":1648,
			"byteOffset":26348,
			"target":34962
		},
		{
			"buffer":0,
			"byteLength":2472,
			"byteOffset":27996,
			"target":34962
		},
		{
			"buffer":0,
			"byteLength":2472,
			"byteOffset":30468,
			"target":34962
		},
		{
			"buffer":0,
			"byteLength":1648,
			"byteOffset":32940,
			"target":34962
		},
		{
			"buffer":0,
			"byteLength":2472,
			"byteOffset":34588,
			"target":34962
		},
		{
			"buffer":0,
			"byteLength":2472,
			"byteOffset":37060,
			"target":34962
		},
		{
			"buffer":0,
			"byteLength":1648,
			"byteOffset":39532,
			"target":34962
		},
		{
			"buffer":0,
			"byteLength":2472,
			"byteOffset":41180,
			"target":34962
		},
		{
			"buffer":0,
			"byteLength":2472,
			"byteOffset":43652,
			"target":34962
		},
		{
			"buffer":0,
			"byteLength":1648,
			"byteOffset":46124,
			"target":34962
		},
		{
			"buffer":0,
			"byteLength":48,
			"byteOffset":47772,
			"target":34962
		},
		{
			"buffer":0,
			"byteLength":48,
			"byteOffset":47820,
			"target":34962
		},
		{
			"buffer":0,
			"byteLength":32,
			"byteOffset":47868,
			"target":34962
		},
		{
			"buffer":0,
			"byteLength":3072,
			"byteOffset":47900,
			"target":34962
		},
		{
			"buffer":0,
			"byteLength":3072,
			"byteOffset":50972,
			"target":34962
		},
		{
			"buffer":0,
			"byteLength":2048,
			"byteOffset":54044,
			"target":34962
		},
		{
			"buffer":0,
			"byteLength":1296,
			"byteOffset":56092,
			"target":34962
		},
		{
			"buffer":0,
			"byteLength":1296,
			"byteOffset":57388,
			"target":34962
		},
		{
			"buffer":0,
			"byteLength":864,
			"byteOffset":58684,
			"target":34962
		},
		{
			"buffer":0,
			"byteLength":324,
			"byteOffset":59548,
			"target":34963
		}
	],
	"buffers":[
		{
			"byteLength":59872,
			"uri":"sombrero.bin"
		}
	]
}
