{
	"asset":{
		"generator":"Khronos glTF Blender I/O v4.2.60",
		"version":"2.0"
	},
	"scene":0,
	"scenes":[
		{
			"name":"Scene",
			"nodes":[
				0
			]
		}
	],
	"nodes":[
		{
			"mesh":0,
			"name":"Plane",
			"scale":[
				53.80894088745117,
				53.80894088745117,
				53.80894088745117
			],
			"translation":[
				10.044568061828613,
				8.91167163848877,
				0
			]
		}
	],
	"materials":[
		{
			"doubleSided":true,
			"name":"Material.017",
			"pbrMetallicRoughness":{
				"baseColorFactor":[
					0.1022346019744873,
					0.05141645669937134,
					0.03453664109110832,
					1
				],
				"metallicFactor":0,
				"roughnessFactor":0.5
			}
		}
	],
	"meshes":[
		{
			"name":"Plane.001",
			"primitives":[
				{
					"attributes":{
						"POSITION":0,
						"NORMAL":1,
						"TEXCOORD_0":2
					},
					"indices":3,
					"material":0
				}
			]
		}
	],
	"accessors":[
		{
			"bufferView":0,
			"componentType":5126,
			"count":13,
			"max":[
				0.8240458369255066,
				0,
				0.7237920761108398
			],
			"min":[
				-0.620058000087738,
				0,
				-0.7439854145050049
			],
			"type":"VEC3"
		},
		{
			"bufferView":1,
			"componentType":5126,
			"count":13,
			"type":"VEC3"
		},
		{
			"bufferView":2,
			"componentType":5126,
			"count":13,
			"type":"VEC2"
		},
		{
			"bufferView":3,
			"componentType":5123,
			"count":33,
			"type":"SCALAR"
		}
	],
	"bufferViews":[
		{
			"buffer":0,
			"byteLength":156,
			"byteOffset":0,
			"target":34962
		},
		{
			"buffer":0,
			"byteLength":156,
			"byteOffset":156,
			"target":34962
		},
		{
			"buffer":0,
			"byteLength":104,
			"byteOffset":312,
			"target":34962
		},
		{
			"buffer":0,
			"byteLength":66,
			"byteOffset":416,
			"target":34963
		}
	],
	"buffers":[
		{
			"byteLength":484,
			"uri":"techo.bin"
		}
	]
}
